<?xml version="1.0" encoding="UTF-8"?>
<!DOCTYPE svg  PUBLIC '-//W3C//DTD SVG 1.1//EN'  'http://www.w3.org/Graphics/SVG/1.1/DTD/svg11.dtd'>
<svg enable-background="new 0 0 2034.079 1242.872" version="1.1" viewBox="0 0 2034.079 1242.872" xml:space="preserve" xmlns="http://www.w3.org/2000/svg">
	<path d="m1591.1 34.92c2.38-0.41 3.56 1.1 3.7 3.31-1.3 0.63-2.58 1.29-3.8 1.97 0.6-1.72 0.41-3.52 0.1-5.28z"/>
	<path d="m1681 35.83c3.65 0.13 7.7-1.27 10.78 1.44 5.806 2.347 12.635 13.411 10.04 16.49-2.16 0.11-2.67-2.47-3.77-3.81-1.15-2.42-3.9-3.15-6.09-4.24-1.15 2.04-1.63 4.44-2.91 6.38-3.83 2.197-2.252-7.917-7.94-8.04-2.75-0.31-4.29 2.42-6.37 3.67-1.82 0.32-2.38-2.48-2.08-3.79 1.28-3.9 5.24-5.82 8.34-8.1z"/>
	<path d="m1590.7 46.67c0.66-2.67 1.3-5.49 3.49-7.39-0.54 2.69-1.06 5.39-1.38 8.11-2.04 4.59-1.65 9.72 0.56 14.16 3.636 6.72-9.461 23.33-9.55 29.97-0.43 1.4-0.77 2.82-1.25 4.2-4.267 3.777-8.609 4.567-14.21 4.37 0.94-3.47 5.936-13.98 6.53-21.62-7.75-3.31-12.77-10.61-20.36-14.17-3.93-0.56-7.09-3.4-9.4-6.45-1-0.755-8.12-2.01-13.56-7.45-1.99-0.33-3.41-1.82-1.34-3.4-0.86-0.07-2.59-0.2-3.45-0.27 0.75-0.75 1.52-1.5 2.32-2.23-7.771-4.626 19.372-0.932 28.01 1.25 14.025 4.029 12.264 8.266 21.42 14.25 0.54 0.02 1.63 0.04 2.17 0.05 2.23-2.06 4.17-4.44 5.1-7.38 0.73-2.68 4.41-3.16 4.9-6z"/>
	<path d="m344.67 42.67c27.988 17.763 17.001 6.893 49.85 26.24 3.922 0.654 1.292 0.67 6.14 1.31 1.6-2.13 3.14-4.31 4.76-6.43 0.87 0.48 1.75 0.97 2.63 1.46-0.02 2.12-0.14 4.25 0.08 6.36 1.01 0.94 2.2 1.65 3.35 2.42 2.576-0.02 23.646 0.689 26.19 1.86 7.82-0.11 15.69 2.69 23.38-0.07l-0.03 0.86c-1.96 0.73-3.81 1.7-5.45 2.99-1.49 0.53-2.89 1.29-4.14 2.25-1.02 0.04-2.02 0.08-3.02 0.12-0.43 0.49-1.3 1.45-1.73 1.94-3.111 0.183-7.786 1.054-10.22 2.83-5.26 0.68-10.51 1.09-15.8 1.35-4.78 2.21-10.16-0.01-15.15-0.24-0.96 1.67-2.1 3.21-3.37 4.64-0.3 15.934-3.041 11.735-7.54 12.74-2.04-0.21-4.09-0.29-6.13-0.33-2.4-1.47-4.48-3.37-6.44-5.35 0.01-0.54 0.02-1.61 0.03-2.14 1.001-0.888 8.99-8.776 8.99-13.14-1.66-1.37-3.69-2.16-5.54-3.21-0.53-0.04-1.58-0.1-2.1-0.13-0.44-0.5-1.31-1.49-1.74-1.98-0.55 0-1.65-0.01-2.19-0.01-7.552-4.639-27.622-23.286-34.81-36.34z"/>
	<path d="m1705 112.14c5.25 0.8 6.69 6.58 10.22 9.71 5.664 6.708 9.469-6.176 14.17-9.86 0.59 0.01 1.76 0.02 2.35 0.03 4.267 12.862 1.504 10.217 0.96 19.47-0.89-1.28-1.59-2.66-2.15-4.08-1.03 1.32-2.08 2.61-3.14 3.88-0.99 5.86-5.74 9.71-10.33 12.87-0.61 2.32-0.39 5.13-1.86 7.06-3.06 2.05-6.77 4.72-10.61 3.29-2.65-0.7-5.59-0.02-7.94-1.69 4.79-4.19 8.8-9.14 11.5-14.94-1.65-1.06-3.27-2.15-4.89-3.2-1.12-1.63-2.33-3.2-3.59-4.7-1 0.036-18.525 0.437-22.67-0.84-1.95 1.26-4.13 2.04-6.41 2.35 0.85-1.23 1.76-2.44 2.68-3.65-1.23 0.27-2.43 0.53-3.62 0.79 4.468-6.894 22.425-17.687 35.33-16.49z"/>
	<path d="m947.57 122.98c3.42-1.8 5.54-5.2 8.85-7.15 0.54 0.58 1.61 1.76 2.14 2.35-0.34 2.12-0.53 4.27-0.61 6.42 34.736 15.496 22.223 15.007 42.75 27.69 1.88 1.06 2.54 3.2 3.42 5.02-0.46-0.41-1.38-1.22-1.85-1.63-0.85 0.42-1.69 0.85-2.52 1.27-4.12-1.64-2.018-0.49-6.18-2.85-2.612-0.435-6.728-1.385-9.03-2.71-0.3 0.1-0.92 0.3-1.23 0.41-0.93-0.52-1.85-1.04-2.76-1.54-1.42-0.21-2.83-0.43-4.12-1.03-0.95-0.13-1.89-0.24-2.82-0.35-2.61-1.71-5.37-3.18-8.07-4.73-2.647-0.496-8.43-2.046-12.94-4.13-2.7 2.22-6.02 3.99-7.38 7.42-1.168 11.277-13.382 3.926-16.92 4.31 3-3.64 6.19-7.15 8.7-11.17 0.04-0.68 0.12-2.03 0.15-2.71-0.065 0.034-25.851 13.675-27.4 14.31 11.111-8.514 10.173-13.248 35.83-29.05 0.5-0.04 1.49-0.12 1.99-0.15z"/>
	<path d="m1638.2 133.35c4.63-1.3 8.67 1.42 13.01 2.51 21.138 13.431 9.863 9.531 15.21 16.47 3.44-0.61 7.37-0.46 9.6 2.68-0.68 0.49-2.03 1.48-2.71 1.97 2.94 3.19 5.05 7.55 4.34 11.94-3.128 6.457-8.962 7.946-16.15-2.97-20.41 1.235-15.843 7.793-22.67 0 3.85-3.03 10.09-1.88 13.04-6.29-2.347-13.567-15.929-18.873-13.67-26.31z"/>
	<path d="m1537.8 165.15c54.489-1.781 39.624 4.94 53.32 12.78 8.217 1.165 8.08-7.256 14.58-3.42 2.225-1.455 9.157-7.835 20.64-3.2-0.96 1.53-1.93 3.05-2.75 4.65-0.5 0.04-1.51 0.11-2.01 0.15-15.113 12.456-13.522 2.058-23.79 18.76 0.66 0.89 1.39 1.76 2.02 2.71-1.23 1.75-4.01 3.61-2.46 6 4.597 5.36 15.158 17.588 14.09 24.82-1.28 0.33-2.54 0.68-3.78 1.02-11.363-6.276-15.336-6.544-22.74-19.59-0.72 2.21-1.15 4.5-1.48 6.8-0.57 0.23-1.72 0.7-2.29 0.93-10.07-2.559-13.276-3.837-12.01-13.43 1.55-2.78 5.7-0.53 7.93-2.63-0.053-0.562-6.68-7.04-6.34-15.13-1.37-1.45-2.76-2.87-4.13-4.29-8.599-1.204-13.591-7.119-20.27-9.33-0.94-0.9-1.87-1.8-2.76-2.71-1.72-0.02-3.45-0.06-5.12-0.12 0.52-1.31 1.69-2.06 2.87-2.74-1.52-0.21-3.39-0.06-3.52-2.03z"/>
	<path d="m1279.7 171.31c2.52 0.36 5.1 0.72 7.58-0.21 0.55 1.45 1.11 2.9 1.67 4.35-0.95 1.27-1.9 2.53-2.87 3.77 0.22 1 0.45 2 0.69 3.01 3.06 2.7 7.02 3.79 10.64 5.49 4.006 3.421 1.224 0.276 5.12 4.92-0.293 6.437 10.644 32.547 11.65 43.67-0.55-0.34-1.63-1-2.18-1.33-0.01 0.54-0.03 1.63-0.04 2.17-8.602-1.001-2.417-3.605-9.23-4.65-3.844-6.007-6.304-1.978-7.73-11.74-1.13 0-2.25-0.01-3.35-0.01-0.7-1.73-1.57-3.38-3.09-4.5-0.23-1.01-0.43-2.02-0.62-3.03-8.017-2.448-4.087-3.413-7.23-5.94-1.08-0.34-2.15-0.65-3.21-0.92-1.36-1.09-2.86-1.96-4.39-2.73-0.02 1.6 1.26 3.86-0.9 4.57 1.19 3.76-0.91 7.09-3.76 9.37-3.514-0.481-18.155 1.459-20.35-6.69 2.77-2.52 5.35-5.27 7.52-8.34 0.72-0.21 2.15-0.63 2.86-0.84-1.1-2.19-3.34-0.93-4.48 0.44-2.355 1.116-5.137 0.28-12.27 14.65-0.64-0.04-1.93-0.11-2.57-0.14 2.755-6.713 15.669-34.674 22.37-38.1 2.74 0.21 6.22-1.24 8.29 1.24 1.12-0.63 2.1-1.43 2.95-2.41 0.47-0.02 1.42-0.06 1.89-0.08 1.87-1.82 3.82-3.64 5.04-5.99z"/>
	<path d="m745.34 173.13c1.13-0.47 2.26-0.93 3.41-1.38-0.14 0.53-0.43 1.58-0.57 2.1 0.46-0.03 1.38-0.08 1.84-0.11 0.06 2.26-0.89 4.76 0.12 6.9 3.56 3.91 10.34 3.13 12.78 8.32 6.24 11.91 7.57 25.58 11.15 38.4-0.69 0.05-2.07 0.15-2.75 0.2-0.867-6.911-7.017-10.633-14.44-21.43-4.378-6.325-6.451-6.984-10.47-9.03-3.4 2.58-5.21 6.51-5.48 10.72-3.51 3.5-9.25 2.64-13.58 1.37 1.43-3.47 3.59-6.55 5.65-9.67 0.01-1.41 0.03-2.82 0.05-4.23-10.904 3.648-6.09 6.693-13.76 17.11 2.082-5.771 7.257-27.167 14.19-30.2 4.6-1.93 11.02-3.14 11.86-9.07z"/>
	<path d="m822.09 192.11c1.01-1.54 3.99-3.24 5.12-1.04 0.44 3.03-0.25 6.09-0.33 9.13 2.68 2.06 5.95 3.11 9.19 3.94 5.71 1.21 10.14 5.32 14.56 8.87 0.53-0.34 1.6-1.03 2.13-1.37-2.02 3.08 2.2 4.47 3.82 6.44 0.33-0.25 0.98-0.76 1.31-1.01 1.86 1.41 3.8 2.72 5.74 4.04-0.22 0.75-0.44 1.5-0.64 2.25 4.1 2.35 7.78 5.4 10.55 9.26-1.69-0.3-3.38-0.57-5.06-0.84-2.27-2.06-5.42-0.11-7.56-2.46-0.9 0.26-1.78 0.53-2.65 0.8-0.72-0.79-1.42-1.58-2.12-2.36-0.53 0.31-1.59 0.95-2.13 1.26-1.33-1.77-3.28-2.19-5.16-0.92-0.3-0.49-0.9-1.45-1.2-1.93-2.34 0.85-4.21-0.5-5.78-2.08-3.41-0.95-6.94-1.44-10.4-2.13-0.4 0.43-1.21 1.3-1.61 1.73-3.01-1.66-6.32-2.61-9.53-3.78-1.38 0.8-2.66 1.74-3.86 2.78 0.09 0.68 0.26 2.04 0.35 2.71-3.12 0.76-0.66 4.25-0.87 6.41-2.09 1.1-4.25 2.05-6.45 2.87-3.71-0.5-9.27 2-11.13-2.51-0.48-0.05-1.44-0.14-1.93-0.19-1.27-0.94-2.52-1.88-3.75-2.86 3.48-4.3 7.93-7.68 11.37-12.02-0.02-0.84-0.05-2.52-0.06-3.35-1.21 0.29-2.4 0.63-3.56 1.03-2.464 0.124-15.348 2.563-18.2 4.28-2.47 0.11-4.94 0.23-7.34 0.8 1.54-0.6 2.72-1.73 3.68-3.07 2.366-0.201 1.499-0.067 4.4-1.08l0.22-1.24c0.36 0.11 1.09 0.35 1.45 0.47 0.17-1.85 1.52-2.23 3.15-2.07 2.05-1.26 3.86-2.85 5.7-4.41 0.02-0.89 0.06-1.79 0.11-2.68 0.05 0.71 0.16 2.12 0.22 2.82 15.367-15.124 21.968-6.396 28.25-16.49z"/>
	<path d="m1836.1 213.54c0.91 0.83 2.35 1.27 2.91 2.49-0.39 2.26-0.99 4.49-1.06 6.81 3.64 0.2 7.27 0.71 10.89 1.26 9.863 8.208 21.619 33.069 21.34 39.32-0.52-0.48-1.55-1.43-2.06-1.91-0.09 0.68-0.27 2.03-0.35 2.7-0.78-0.97-1.51-1.96-2.19-2.97-0.38 0.3-1.14 0.89-1.52 1.18-0.53-0.96-1.04-1.92-1.52-2.88l-2.2-0.64c-0.5-0.81-0.98-1.61-1.45-2.41-2.18-0.84-3.56-2.79-5.48-3.98-0.55-0.66-1.08-1.31-1.58-1.96-5.569-2.695-14.359-12.047-20.68-12.45-11.54 5.336-3.997 8.884-16.62 14.87-1.68 0.04-3.33 0.07-4.97 0.08-0.9-0.76-1.79-1.52-2.66-2.27 3.42-4.46 7.67-8.47 9.21-14.08-4.854 1.972-6.099 1.539-7.32 3.13-2.79 4.4-5.09 9.29-8.95 12.89 1.734-4.494 11.238-24.126 17.05-29.62 15.812-1.618 12.305-4.665 19.21-9.56z"/>
	<path d="m424.72 232.18c17.633 9.03 32.444 10.253 37.09 16.11 2.82 3.34 5.25 7.22 9.35 9.16 3.18-1.36 4.84-5.69 8.61-5.45 0.66 0.86 1.27 1.74 1.86 2.66 0.33 0.17 0.99 0.53 1.32 0.71-1.07 1.41-3.24 2.53-2.86 4.58 4.897 0.064 12.127-5.659 21.88-3.27 4.78 1.27 10.24-1.16 14.57 1.69-18.54 12.072-33.503 11.769-40.37 13.78-5.763 7.463-6.295 2.924-12.23 17.95-1.77-0.05-3.53-0.11-5.28-0.2-3.25-1.94-7.42-2.67-9.4-6.25-1.13-1.26 1.14-2.04 1.83-2.76 2.89-1.78 4.53-5.13 7.86-6.25 1.07-2.08 2-4.21 2.93-6.35-4.654-2.4-30.581-20.02-38.48-33.21 0.99-0.01 2.97-0.04 3.95-0.06-0.89-0.94-1.77-1.88-2.63-2.84z"/>
	<path d="m1336.3 253.87c1.46-0.2 2.55-1.1 3.44-2.22 0.9-0.04 2.69-0.1 3.59-0.13 1.63 2.44 2.3 5.25 1.96 8.17 1.86 0.41 3.72 0.77 5.61 1.15 2.07 1.13 4.5 0.71 6.78 0.94-0.06 0.46-0.17 1.39-0.23 1.85 0.39-0.33 1.18-0.98 1.57-1.31 9.942 9.11 21.647 24.929 25.37 31.46 0.42 0.28 1.26 0.84 1.67 1.12 0.96 1.72 1.96 3.43 2.92 5.18 2.73 0.15 5.45-0.16 7.97-1.29 3.73 0.13 7.47 0.28 11.23 0.06 2.331 0.949 12.647 2.564 15.84-2.33 2.46-1.66 5.15-3.1 8.22-3.11 0.33 1.23 0.73 2.45 1.18 3.67-0.84 1.67-1.69 3.33-2.56 4.98 1.13 0.56 2.27 1.12 3.44 1.69 2.42-0.37 4.63 0.65 6.79 1.64 1.35-5.46 5.14-9.71 7.68-14.59 0.734-0.38 3.977-6.481 5.62-7.81 0.1-0.52 0.32-1.55 0.43-2.07 0.5-0.2 1.5-0.6 2-0.81 2.673-7.209 6.359-3.827 6.7-8.44 0.18-0.04 0.53-0.13 0.71-0.18 1.86-1.24 3.72-2.52 5.46-3.95 0.92 0.01 2.74 0.01 3.65 0.01 3.265 1.935 6.023 4.459 13.24 1.7 1.18-1.28 2.68-2.14 4.38-2.59 0.13-0.55 0.38-1.65 0.5-2.19 1.3-0.01 2.61-0.01 3.95-0.01 1.97 1.58 3.49 5.14 0.88 6.87 8.143 0.993 4.152 0.346 9.34 0.13 3.477 3.343 9.054 13.783 7.63 19.22 3.49 3.69 1.95 9.37 1.83 13.95l1.55 0.9c-0.32 1.4 0.42 3.52-1.65 3.94-0.08 3.09 1.22 6.43-0.52 9.27-2.27-2.22-7.23 1.04-7.46-3.08-0.52-0.09-1.56-0.27-2.07-0.35-1.068-4.099-10.691-17.636-11.89-18.46-1.29-2.87-3.13-5.62-6.45-6.19-2.38 1.53-5.07 2.39-7.69 3.36-2.33 3.01-3.62 6.76-6.44 9.43-2.52-0.57-5.14-0.66-7.34 0.83-3.81 0.67-7.27-0.5-10.52-2.35 0.02-0.78 0.07-2.32 0.09-3.1 2.55-1.93 6.42-2.55 7.11-6.32 0.52-0.15 1.56-0.46 2.08-0.61 0.57-1.02 1.17-2.02 1.81-3-0.74-0.63-1.44-1.26-2.13-1.89-1.54-0.14-3.32-0.54-3.31 1.64-0.63-0.02-1.87-0.07-2.49-0.09-4.53 5.37-9.79 10.22-12.74 16.74 4.58 1.73 9.76 2.67 13.21 6.44 3.89 0.51 7.66 2.27 11.21 3.95 1.36 0 2.96-0.39 3.8 1.07 1.93-0.14 3.89-0.15 5.83 0.18-0.31 1.97-0.9 3.89-3.2 3.97-3.98-1.54-8.48-0.02-12.65-0.97l-1 2.4c-1.56-0.07-3.1-0.14-4.62-0.19-4.62 1.94-9.58 2.66-14.55 2.14-2-2.36-5.45-0.5-8.08-0.9-2.3-2.89-6.55 0.21-9.38-1.95-1.79 0.15-3.55-0.06-5.17-0.78-1.98 1.22-3.91 2.49-5.81 3.79-0.88 2.08-1.96 4.07-3.25 5.92 0.07 2.43-1.22 4.46-2.91 6.09-2.65-0.51-5.33-0.37-7.96-0.05l0.36-3.16c-1.59 0.86-3.22 1.59-4.86 2.29-2.32-0.8-4.47-1.97-6.19-3.72 0.86-0.23 2.57-0.71 3.43-0.95 0.09-1.04 0.19-2.07 0.32-3.1 1.02-0.3 2.07-0.59 3.13-0.88 3.16-2.43 4.74-6.08 7.02-9.22-0.55-0.27-1.66-0.82-2.21-1.09-1.9 1.16-4.15 1.17-5.94-0.11-3.83-0.46-8.13-0.82-10.96-3.75-1.34-0.12-2.63-0.21-3.93-0.31-7.521-7.166-8.161-8.003-8.28-9.96-2.413-0.724-1.218-0.576-6.04-2.44 0.57-1.06 1.16-2.11 1.79-3.15 0.01 0.84 0.05 2.54 0.07 3.39 2.04-1 1.47-4.66 4.45-3.73-2.12-2.79-5.05-4.75-8.47-5.52-1.68-1.77-3.44-3.47-4.9-5.41-4.51-2.29-9.82-2.94-13.77-6.28-1.81-0.53-3.53-1.28-5.12-2.25-0.98 1.17-1.96 2.33-2.94 3.48-0.11 1.85-0.2 3.7-0.33 5.56-1.44 1.6-0.74 3.8-1.21 5.7-2.74 3.08-6.82-0.06-10.03 1.49-2.02-1.51-4.51-1.08-6.82-0.87-3.599-5.603-0.748-2.488 4.03-11.64 0.44-0.21 1.32-0.63 1.75-0.84-0.08-1.17-0.14-2.34-0.17-3.49-0.55-0.06-1.65-0.17-2.21-0.23-2.72 1.96-5.65 3.96-9.11 4.16-2.17 2.22-4.18 4.61-5.26 7.56-4.349 2.027-9.591 7.495-11.82 9.44-0.48-1.06-1.44-2.34-0.43-3.41 5.68-7.426 13.465-23.61 23.58-31.69 2.04-0.36 4.13-0.83 5.8-2.17 3.34-0.52 6.25-2.97 9.76-2.25 0.51-0.25 1.52-0.75 2.03-0.99-0.181-0.75-0.54-2.25-0.72-3m38.95 48.46c0.38 0.38 0.38 0.38 0 0z"/>
	<path d="m1889.6 262.76c4.1-1.64 5.83-6.16 9.65-8.2 0.88 0.78 1.87 1.53 2.71 2.42 0.15 2.15-0.07 4.29-0.13 6.44 4.04-0.4 8.66-3.82 12.36-0.61 8.927 8.195 11.25 29.973 8.55 40.77-0.63-0.33-1.9-0.98-2.54-1.31-0.23 0.73-0.71 2.2-0.94 2.93-5.76-7.18-8.23-16.35-13.84-23.65-0.9-2.24-3.51-1.44-5.35-1.61-4.36-0.51-7.11 3.51-10.49 5.51-2.78 3.11-4.96 6.67-6.72 10.44-3.63 1.62-7.66 1.1-11.5 1.11 0.807-4.624 5.557-5.214 7.3-15.85-13.586-2.556-10.995 1.401-23.47 25.15-3.127-4.169 15.177-42.341 21.69-44.32 4.19 0.4 8.6 3.11 12.72 0.78z"/>
	<path d="m1116.1 257.82c1.54 0.49 3.08 1.11 4.31 2.23 1.52 0.63 3.06 1.27 4.61 1.88 0.31 0.49 0.92 1.47 1.22 1.96 1e-3 0 30.21 10.73 30.21 10.73 1.89 0.4 3.79 0.81 5.72 1.17 6.46 3.43 13.18 6.52 20.29 8.35 0.92-0.94 2.04-1.54 3.35-1.79 2.694-3.269 2.006-2.433 4.09-5.56 1.48-0.1 2.98-0.22 4.49-0.37 1.11 2.37 0.9 5.12 2.22 7.46 6.68-1.87 13.32-3.99 20.16-5.27 1.09-1.07 2.54-0.7 3.9-0.43 5.14-0.82 10.33-1.9 15.3-3.57 0.84 0.17 2.53 0.52 3.37 0.7-2.19 5.28-6.7 9.68-11.9 11.95-0.76 1.69-2.24 2.38-4.01 2.15-4.672 4.166-10.145 4.567-15.13 5.79-0.37 0.52-1.1 1.55-1.46 2.07-0.59-0.03-1.75-0.08-2.34-0.1-1 0.659-21.378 6.797-19.45 17.89 0.67 3.69-2.78 8.27-6.8 7.23-1.98 0.93-4.04 1.66-6.17 2.09-1.68-1.91-4.31-1.28-6.53-1.44-1.86-1.71-3.84-3.27-5.73-4.92 1.64-1.1 3.42-2 4.99-3.23 1.49-2.2 2.72-4.64 4.99-6.18 1.05-2.03 2.07-4.09 3.12-6.13-3.34-1.37-6.86-2.24-10.28-3.37-0.17-0.56-0.52-1.67-0.7-2.22-0.7 0.15-2.11 0.46-2.82 0.61-2.92-1.41-5.93-2.61-9.07-3.38-0.011-0.014-12.233-7.532-18.08-12.08-0.76-2.11-2.64-3.4-4.21-4.85-0.19-1.87-1.54-3.04-2.96-4.05-0.69-1.44-1.36-2.87-2.09-4.26-0.09-0.88-0.29-2.64-0.38-3.53l1.62 0.05c-2.67-1.23-5.04-2.96-7.4-4.67-0.109-0.73-0.339-2.18-0.45-2.91z"/>
	<path d="m1240.8 272.05c2.33-0.56 4.38-1.82 6.18-3.38-0.01 0.86-0.02 2.58-0.02 3.44-2.08 1.55-4.47 2.59-6.99 3.14 0.25-1.07 0.529-2.14 0.83-3.2z"/>
	<path d="m1236.5 284.86c1.61 0.69 3.26 1.35 4.98 1.8 0.21 1.3 0.42 2.61 0.65 3.93 1.39 1.09 2.73 2.26 4.04 3.48 0.61 2.6 1.64 5.18 1.44 7.9 4.86 3.1-0.29 10.12 3.58 13.86 1.76 0.54 3.57-0.46 5.35-0.7 0.4 1.19 0.84 2.38 1.3 3.57v1.73c-1.85 0.94-3.79 1.8-5.32 3.22 3.87 6.35 5.66 14.16 3.24 21.36-2.3-0.06-4.58-0.14-6.84-0.36-3.29-3.32-8.87-5.69-8.78-11.12-0.9-0.34-1.79-0.68-2.66-1.01-0.99-2.05-1.99-4.09-2.96-6.14-9.907-0.432-14.67 3.839-15.27-5.88 0.74-0.69 1.48-1.37 2.24-2.05 1.24-0.03 2.49-0.06 3.76-0.07 1.2 2.77 4.63 1.36 6.98 1.72 0.34-2.83 0.06-5.67-0.18-8.5 2.54-1.09 0.82-4.04 0.84-6-4.388-2.56-1.909-13.305-0.59-18.16l1.4 0.16c-0.06-0.63-0.18-1.9-0.24-2.53 0.78 0.35 2.36 1.05 3.14 1.41-0.021-0.41-0.08-1.22-0.1-1.62z"/>
	<path d="m1368 295.23c1.39-0.65 1.87-0.25 1.44 1.21-1.41 0.64-1.89 0.24-1.44-1.21z"/>
	<path d="m1880.6 312.27c18.43 13.679 26.463 12.547 37.13 19.18 4.68 3.23 7.51 8.97 13.3 10.6 4.65-0.39 8.1-4.86 12.88-3.98 1.13 0.94 1.16 2.52 1.63 3.83 6.44-1.57 13.21-1.01 19.72-0.06 2.03-1.74 3.41-4.35 6.04-5.3-0.2 2.09-0.75 5.08-3.35 5.3-8.822 1.495-9.789 5.702-28.36 11.42-4.21 0.99-6.34 5.23-10.11 6.97-3.29 1.61-6.81 2.75-9.94 4.67-0.51 0.05-1.54 0.16-2.05 0.21-6.574 6.437-5.475 6.618-14.71 8.38-1.24-0.22-2.5-0.42-3.69-0.6-0.45-1.51-0.87-3.02-1.24-4.53 6.15-3.34 11.77-7.65 16.23-13.07-7.244-6.803-1.321 2.898-23.26-20.1-2.63-2.58-4.01-6.13-6.67-8.69-0.04-0.49-0.12-1.46-0.16-1.95-2.49-2.96-4.5-6.28-6.12-9.77 1.48 0.47 2.98 0.99 4.51 1.46-0.611-1.33-1.2-2.65-1.78-3.97z"/>
	<path d="m1480.4 314.7c0.6-0.15 1.8-0.43 2.4-0.57-0.03 0.6-0.09 1.79-0.12 2.38-0.68 0.08-2.05 0.24-2.74 0.32 0.12-0.53 0.35-1.6 0.46-2.13z"/>
	<path d="m57.04 344.54c2.16 1.13 4.36 2.17 6.52 3.3 0.49 0.1 1.46 0.28 1.95 0.37 6.35 3.82 13.13 8.52 20.91 7.85 0.89-1.91 1.88-3.76 2.94-5.58 3.65 0.33 3.64 3.91 4.49 6.68 2.05 3.48 6.72 2.74 10.14 2.95 3.96-3.81 7.81-8.35 13.21-10.02 5.3 0.4 10.17 3.39 15.63 3.17 1.58-2.14 2.65-4.58 3.46-7.1 0.92-0.46 1.84-0.92 2.76-1.36 0.99 0.79 1.99 1.6 2.99 2.4-0.01 0.61-0.02 1.83-0.02 2.43 12.609 17.987 14.127-18.62 37.57 33.93 2.5 6.12 5.67 12.28 5.54 19.06-1.07-1.22-2.12-2.47-3.16-3.72 0.01 1.18 0.02 3.54 0.03 4.72-19.488-25.499-20.651-29.241-38.83-28.62-1.47 5-0.23 10.1 0.16 15.15-0.01 1.56-1.74 1.95-2.72 2.8-4.53 0.8-11.03 2.85-13.85-2.16 0.03-5.54 1.37-11.09 0.37-16.61-5.523 2.106-7.015 1.224-17.96 3.71-0.09-0.45-0.28-1.34-0.37-1.79-0.7 0.54-1.39 1.09-2.08 1.64-4.87 0.33-8.37 4.39-11.6 7.62 0.54 2.55 1.85 4.87 2.4 7.44-14.028 2.987-4.516 0.892-12.76 3.44-1.83-1.22-3.73-2.29-5.66-3.32-1.24 0.43-2.48 0.87-3.72 1.3-0.4-0.53-1.22-1.58-1.62-2.11-1.14-0.14-2.27-0.27-3.41-0.4-3.55-1.92-6.3-4.94-8.77-8.06 3.286-1.563 13.923-7.282 15.57-10.75-1.22-0.87-2.43-1.74-3.63-2.61-0.22 0.3-0.64 0.91-0.86 1.21-1.19-1.34-2.38-2.67-3.59-3.98 0 0.76 0.01 2.29 0.01 3.05-7.041-3.863-6.228-2.491-12.04-7.88v-18.15z"/>
	<path d="m1606.1 349.11c8.159 5.032 11.527 14.658 23.95 4.96 1.49 1.03 2.96 2.22 3.44 4.09 5.5-1.652 12.762-7.797 16.46 13.81 0.43 5.54 0.64 11.36-1.38 16.63-0.33 0.21-1 0.62-1.34 0.83-0.09-0.78-0.28-2.34-0.38-3.12-0.77 1.52-1.48 3.06-2.08 4.64-0.73-1.29-1.94-1.76-3.32-1.86-0.4-1.06-1.05-1.89-1.96-2.49-0.77-1.02-1.52-2.04-2.25-3.04-0.46-1.74-0.87-3.48-1.49-5.15-1.6-2.13-4.74-2.17-6.31-4.4-4.46-0.94-7 3.34-10.43 5.26-0.03 3.54 0.22 7.1-0.09 10.64-0.26 0.25-0.77 0.75-1.03 1-18.555 0.666-25.933-4.686-25.88-5.91 1.21-1.76 3.37-2.49 5.17-3.5-0.3-0.79-0.58-1.58-0.84-2.36 0.6-0.01 1.79-0.04 2.39-0.05 0.86-2.11 2.49-3.75 4.81-4.19-0.69-2.92-3.33-4.42-5.87-5.5-0.71-0.96-1.64-1.57-2.81-1.82-0.03 0.52-0.1 1.56-0.13 2.07-1.98-0.04-3.95-0.07-5.9-0.1-1.61 0.78-3.35 1.43-4.56 2.78-5.453 3.193-10.517 5.63-16.59 3.68-0.35-1.68-0.8-3.36-1.66-4.84 1.758-4.177 5.364-6.903 11.77-11.93 0.01 0.52 0.03 1.54 0.05 2.05 7.441-4.291 17.927-13.36 28.26-12.18z"/>
	<path d="m692.84 379.28c2.26-0.09 4.53-0.12 6.81-0.1 5.17 5.06 6.59 12.73 6.11 19.7 4.08 0.49 3.37 5.3 2.75 8.21-1.38 4.61 0.37 10.15-3.72 13.69-3.33 0.24-6.92 0.51-9.78-1.55-2.35-4.01-5.24-7.91-5.93-12.62-5.183-0.895-5.205 3.622-12.83-1.86 0.06-2.87-0.62-5.99 0.59-8.67 2.71-2.82 7.1-1.82 10.39-0.71 0.56-4.01 1.44-7.97 2.39-11.9 1.14-1.35 2.22-2.75 3.22-4.19z"/>
	<path d="m574.97 408.62c7.02-1.53 9.66 7.12 15.3 9.41 0.93-2.4 1.39-5.03 2.78-7.2 1.73-0.84 3.86-0.34 5.76-0.53 0.47 2.19-0.84 5.73 2.11 6.43-0.13 0.49-0.4 1.47-0.53 1.95 2.95-2.06 6.2-3.66 9.49-5.1 4.22 0.23 9.8-1.32 12.47 3.06 1.33 1.04 2.67 2.09 3.96 3.21 0.45 1.1 0.81 2.35 1.98 2.93 0.52 1.13 0.94 2.38 2.09 3.07 1.09 2.6 2.62 5.05 3.31 7.81l1.23-0.24c-0.2 0.81-0.61 2.43-0.81 3.24 9.797 7.254 7.395 5.808 16.56 5.98 2.34-2.59 4.63-5.88 8.64-5.14 0.73 2.17 2.53 5.24-0.05 6.92 0.04 1.03 0.09 2.08 0.15 3.13 2.09 0.16 4.5-0.25 6.2 1.31 3.5-0.22 7.01-0.34 10.52-0.09 2.19 2.36 5.84 0.13 8.38 2.03 0.65-0.02 1.95-0.07 2.6-0.09 2.078 2.503 16.121 1.881 17.43 2.02 3.33-2.8 6.09-6.17 9.24-9.15 0.82 0.06 2.46 0.2 3.28 0.26 4.22 2.21 8.9 3.16 13.65 3.1 0.68-0.74 1.37-1.48 2.06-2.21-1.03-3.6 4.46-5.43 6.39-2.57 0.19 1.55 0.07 3.12 0.05 4.7 2.24-0.59 4.49-1.2 6.68-1.98 1.92 0.09 3.92-0.3 5.8 0.19 4.133 4.258 10.066 6.705 13.71 27.53 1.44 2.28 0.08 5.24 1.78 7.38 0.05 1.69 0.05 3.38 0.06 5.08-0.98-0.19-1.95-0.39-2.91-0.58-0.65 1.03-1.31 2.07-1.95 3.11-2.835-6.814-12.506-19.172-18.26-23.46-2.56-0.27-5.13-0.12-7.69-0.1-1.7 1.79-3.46 3.55-5.19 5.32 0.23 3.41-2.05 6.55-0.53 9.94-5.554 0.935-6.985 2.319-12.18 2.9-1.75-2.79-5.4-1.64-7.63-3.73 1.6-1.63 3.25-3.21 4.92-4.77-0.86-2.86 2.64-4.31 4.22-6.13-0.02-0.57-0.05-1.71-0.06-2.27-3.59 0.48-6.86-1.48-10.42-1.05-8.246 5.717-10.968 12.274-20.66 20.25 0.8-6.75 4.86-13.817 8.84-18.94 1.45-3.75 3.14-7.44 5.46-10.74-2.17 1.19-4.37 2.65-6.96 2.47-0.34 0.5-1.04 1.5-1.39 2-0.58 0.04-1.73 0.11-2.31 0.14-0.83 0.58-1.66 1.16-2.49 1.73-3.88 1.21-7.57 3.26-11.76 3.13-1.77 0.97-4.15 2.11-5.46-0.13-3.92 2.49-9.53-1.15-12.85 2.43-0.55-0.33-1.64-0.98-2.19-1.3-2.58 0.38-5.12-0.19-7.54-1.05-2.1 1.55-4.67 3.06-5.05 5.91-1.4 3.05-2.87 6.09-3.91 9.29-4.48-0.36-8.97-0.38-13.45-0.07-1.01-3.14-3.54-5.14-6.14-6.92 1.22-1.06 2.52-2.01 3.95-2.77 3.01-3.04 6-6.09 8.99-9.15 0-0.47 0.01-1.42 0.01-1.9-7.528-0.195-16.486-7.083-17.65-7.52-0.81-0.96-1.78-1.7-3.03-1.93-1.04-1.38-2.32-2.54-3.93-3.19-0.75-0.62-1.48-1.24-2.21-1.85-0.6-0.2-1.79-0.59-2.39-0.78 0-0.48-0.01-1.44-0.01-1.92-1.24-0.69-2.46-1.39-3.67-2.1-0.32-1.22-0.63-2.42-0.98-3.61-0.02 0.63-0.07 1.9-0.1 2.53-1.62 0.4-1.96 1.92-2.35 3.33-0.6 0.13-1.82 0.4-2.42 0.53 0.18 1.67-0.25 3.78 1.66 4.6 0.01 2.56 0 5.13 0.05 7.7-3.28 0.87-6.58 1.66-9.88 2.41-2.15 1.21-4.63 0.89-6.96 0.67-1.26-0.87-2.79-1.01-4.25-1.1v-1.16c-0.57 0.12-1.7 0.36-2.27 0.48 0.387-8.199 6.787-4.989 6.17-20.53l1.55 0.35c-3.14-2.29-6.61-4.31-10.39-5.28-3.355 0.28-13.609 2.922-21.22 9.46-2.38 0.03-4.76 0-7.13-0.03 0.15-0.92 0.44-2.76 0.58-3.69-0.89 1.06-2.01 1.77-3.36 2.14-0.02-1.1-0.04-3.29-0.06-4.38 1.38-2.7 2.52-5.78 5.5-7.09 0.6-1.13 0.51-3.07 2.18-3.13 2.36-0.29 4.19-1.7 4.56-4.13 1.57-1.66 3.17-3.37 5.29-4.33 3.169-3.276 11.37-7.672 17.04-6.45z"/>
	<path d="m1014.9 408.96c1.66 1.26 3.62 2.07 5.62 2.65 7.21 5.86 15.74 9.83 23.95 14.1 6.357 1.215 19.853 13.084 21.17 14.42 3.35 0.01 5.74-2.34 8.24-4.22 1.45-0.08 2.91-0.08 4.39-0.01-0.03 2.65-0.18 5.29-0.3 7.94 2.97 1.84 6.65 0.44 9.66 2.04 5.82-0.08 11.95 0.67 16.95 3.9 2.11 0.1 4.13 0.75 5.93 1.87 5.706 1.192 3.987 1.554 16.74 3.61-0.26 2.09-1.91 2.41-3.67 2-4.52 3.53-10.63 2.34-15.95 2.92-3.58 1.75-7.81 0.7-11.63 0.6-4.801-1.865-11.731 3.006-21.63-1.76-3.18-0.32-5.21 2.55-7.95 3.59-1.32 2.89-1.92 6.01-2.52 9.1-0.79 0.77-1.56 1.54-2.32 2.32-6.334-0.052-8.363 0.871-14.74-4.83-0.08-1.03 0.04-2.06 0.11-3.07 5.582-3.175 13.047-10.441 8.06-14.99-8.71-0.95-12.69-10.22-19.62-14.49-4.06-4.2-10.54-7.06-11.7-13.28-3.79-4.19-7.09-8.98-8.79-14.41z"/>
	<path d="m1299.4 416.7c2.4 2.56 4.96 4.97 7.65 7.24 1.35-0.57 2.69-1.23 4.01-1.94 4.56 0.31 9.54-4.33 13.41-0.21 7.138-0.461 5.334 2.088 14.61-3.23 1.88 0.39 3.76 0.9 5.53 1.74 0.47 1.19 0.97 2.38 1.49 3.58-4.21 0.53-5.6 5.14-6.11 8.71 2.841 0.986 11.419 8.553 13.4 14.94 2.57 2.39 3.87 5.72 4.94 8.99 0.633 0.625 11.909 17.22 12.13 17.9-0.59-0.05-1.78-0.16-2.38-0.21-0.01 0.46-0.04 1.38-0.05 1.83-1.03 0.46-2.03 0.95-3 1.47-1.3-1.62-3.27-2.08-5.19-2.38-0.68-1.06-1.36-2.13-2.01-3.17-1.14 0.02-2.26 0.05-3.36 0.08-0.43-0.5-1.28-1.49-1.71-1.98-0.72 0.07-2.16 0.22-2.88 0.29-0.89-3.69-5.22-2.9-7.23-5.63-4.41-2.93-8.38-6.48-11.98-10.35-4.19-2.13-6.81-6.2-10.22-9.28-6.53 0.33-9.33 7.13-14.64 9.76-5.81 1.75-14.88-2.1-14.1-9.11 1.001-0.432 13.521-6.128 17.31-9.22-11.237-2.945-10.196-4.21-15.44-9.67-0.02-1.57-0.03-3.14-0.01-4.7 1.21-0.41 2.42-0.86 3.63-1.33 1.06 0.5 2.12 1.01 3.2 1.53-0.44-0.54-1.33-1.63-1.77-2.18 0.191-0.87 0.581-2.6 0.77-3.47z"/>
	<path d="m498.79 420.23c0.77 0.04 2.31 0.11 3.08 0.15 1.88 1.91 3.87 3.73 6.26 5-0.01-0.65-0.02-1.95-0.03-2.59 1.35 1.51 2.83 2.93 4.65 3.88 0 0.32-0.02 0.97-0.03 1.29 0.71 0.11 2.14 0.34 2.86 0.45 2.756 2.643 3.218 1.799 7.86 5.23 0.818 1.914 5.809 2.16 7.9 6.28 0.59 0.11 1.77 0.35 2.36 0.46 1.95 2.07 3.92 4.12 5.97 6.11 0.11 0.6 0.33 1.81 0.44 2.42 1.16 0.2 2.32 0.41 3.48 0.63 1.62 1.52 3.39 2.87 5.27 4.07 4.063-4.953 1.846-2.865 4.49-6.35 2.13 0.13 4.28 0.35 6.27 1.21-0.06 3.26-0.05 6.54 0.04 9.81 8.23-0.07 16.42 0.75 24.64 0.7 2.31-0.38 5.88-1.75 7.22 1.05 19.379-2.003 9.701 2.635 24.25-5.43-0.09 0.9-0.26 2.69-0.35 3.58-3.9 0.71-6.16 4.28-9.59 5.89-2.7 1.32-5.52 2.45-8.04 4.1-3.602 0.884-0.789 0.194-6.19 2.19 0.05 0.29 0.13 0.87 0.18 1.16-1.99 0.11-4.02 0.29-5.59 1.63-2.42 0.55-4.82 1.2-7.05 2.29-2.03-0.06-4.04-0.13-6.05-0.24-1.29 1.86-3.73 1.08-5.64 1.26l0.22 1.23c-4.74-0.64-9.51-0.49-14.26-0.2-0.98 1.15-1.98 2.27-3.01 3.37 0.09 0.4 0.29 1.2 0.39 1.6-0.44 0.07-1.32 0.21-1.77 0.28 0.28 1.52 0.55 3.04 0.8 4.57-0.4 0.26-1.21 0.76-1.61 1.01-0.39 3.06-0.13 6.15-0.18 9.22-2.91 0.24-7.35-2.19-8.94 1.27-2.44-0.95-4.71-2.64-7.46-2.38-2.92-3.25-7.34-5.88-8.12-10.48-0.8-2.76 2.59-2.57 4.26-3.17 1.37-3.76 4.87-6.06 7.52-8.87 0.3-1.23 1.8-2.48 1.01-3.76-0.7-0.18-2.09-0.54-2.78-0.72-0.13-0.56-0.38-1.68-0.51-2.24-1.44-0.57-2.86-1.15-4.27-1.75-0.66-2.5-2.61-4.15-4.92-5.1-0.73-1.34-1.57-2.72-3.18-3.06 0.28-2.63-1.37-3.92-3.85-3.89-0.44-1.18-1.29-1.86-2.56-2.04 0.21-0.5 0.62-1.5 0.83-2l-1.88 0.47c0.1-0.51 0.29-1.55 0.39-2.07-0.51-0.02-1.53-0.05-2.04-0.07 0.59-2.84-2.27-4.18-3.85-5.94-0.49-2.86-2.06-5.45-4.12-7.45-1.002-7.119-0.639-2.906-1.69-7.74-1.15-2.05-2.14-4.19-3.08-6.32z"/>
	<path d="m1644.5 432.82c2.59 0.8 4.23-1.71 6.54-2.04 0.12 0.43 0.34 1.29 0.45 1.72 6.073 3.529 5.34 0.98 15.94 10.21 6.5 4.59 8.88 13.63 16.71 16.61 2.1-1.13 3.98-2.62 5.52-4.46 2.11-0.12 3.44 1.21 3.81 3.25 8.142-4.84 7.23-0.705 13.24-9.29 0.34 0.74 1.03 2.23 1.37 2.97-1.87 2.12-4.65 2.76-7.03 4.04-2.97 2.42-5.63 5.19-8.53 7.68-4.282 6.434-1.978 8.274-13.47 14.77-0.02 3.16-0.03 6.33 0.06 9.5-1.924 1.883-11.703 5.152-16.62 0.36-0.49-0.05-1.47-0.14-1.95-0.19-1.33-1.42-6.16-2.88-3.8-5.13 5.42-3.04 11.14-6.02 15.19-10.91-8.51-4.14-11.59-13.68-17.59-20.29-0.4-1.57-1.18-2.96-2.17-4.2-0.11-0.95-0.21-1.88-0.28-2.81-1.18-1.53-1.13-3.41-0.98-5.21-2.18-2.16-4.31-4.36-6.41-6.58z"/>
	<path d="m1144.5 432.79c2.506-2.055 13.451-0.224 15.7 0.12 6.17 2.49 8.43 9.18 13.34 13.18 3.65-0.04 7.55-1.41 8.56-5.33 6.414-1.895 4.533-0.758 6.8 2.31 2.66-2.73 6.24-4.75 10.2-4.23 4.07-0.83 5.51 3.71 7.53 6.28-0.1 0.33-0.29 0.98-0.39 1.31 1.72 2.98-0.26 6.8 1.98 9.56-0.92 0.99-1.97 1.17-2.99 0.23-0.17 1.27-0.32 2.54-0.48 3.82-4.78-2.63-10.46-4.5-15.8-2.33-5.484 0.312-6.083 10.161-13.53 11.56-1.95 1.67-3.54 3.72-3.79 6.37-1 1.45-1.97 2.92-2.91 4.41-0.54 0.02-1.63 0.07-2.18 0.09-5.04 4.26-12.32 1-16.89-2.45 3.078-7.144 10.918-5.63 12.27-16.86-4.07-2.41-7.48-5.71-11.28-8.49-2.15-0.25-4.16-1.03-6.04-2.04-3.17-0.63-6.2-1.74-9.05-3.2-4-0.54-8.34 0.79-12.08-0.92-1.45-0.11-2.88-0.2-4.3-0.27 0.63-0.87 1.28-1.74 1.95-2.6-1.38-0.05-2.65-0.38-3.8-1 5.35-5.409 21.859-9.44 27.18-9.52z"/>
	<path d="m1598.6 452.4c1.66-0.04 3.35-0.16 5.04 0.05 0.82 1 1.48 2.13 2.25 3.21-0.36 1.44-0.79 2.92-2.4 3.38l0.2 0.97c1.07 0.19 1.95 0.71 2.65 1.56 1.17-0.04 2.36-0.07 3.57-0.09 0.55 1.05 1.13 2.1 1.75 3.15 0.12 5.81-3.39 11.17-2.25 17.01 0.39 1.86-0.45 3.63-0.99 5.36-0.7-0.19-2.09-0.56-2.78-0.75-0.84 2.64-2.48 4.93-4.03 7.19-1.86 0.79-3.71-0.67-5.49-1 0.45-1.81 0.93-3.62 1.48-5.4-0.42-1.67-0.53-3.56-1.91-4.74-0.24-1.49-0.38-2.95-0.55-4.42-0.74-0.94-1.45-1.87-2.16-2.79l-0.4 1.68c-0.82-0.13-2.45-0.39-3.27-0.52-0.73 2.27-3.25 3.1-4.31 5.16-0.47 0.2-1.4 0.59-1.87 0.78-0.33 1.07-0.65 2.14-0.94 3.22-3.36 0.24-6.63-1.23-9.85 0.37 0.02-1.81 0.08-3.61 0.19-5.4 2.89-2.18 5.23-4.94 7.21-7.96-1.4-0.18-2.79-0.43-4.14-0.7 0.03-3.25-3.18-2.02-5.14-1.59-0.79 1.89-2.5 2.63-4.44 2.18-0.13 0.47-0.38 1.4-0.5 1.87-2.32 1.59-4.62 3.32-7.38 4.03-0.37 1.04-0.71 2.09-1.04 3.14-1.57 0.17-3.14 0.34-4.68 0.52 0.01-0.6 0.05-1.79 0.07-2.39 3.04-2.33 4.55-6.08 7.71-8.28 0.83-1.83 2.99-1.81 4.62-2.51 1.95-0.33 2.09-2.58 2.79-4.05 1.05-1.02 2.12-2.05 3.18-3.08 1.03-0.22 2.08-0.43 3.15-0.63 0.27-1.1 0.56-2.18 0.86-3.27 1.73-0.11 3.47-0.19 5.24-0.19 0.04-0.52 0.11-1.54 0.15-2.06 10.19-0.041 8.797 5.354 16.04-0.57 0.03-0.29 0.1-0.87 0.13-1.17 0.56-0.32 1.68-0.95 2.24-1.27z"/>
	<path d="m264.34 456.18c1.89-0.51 3.24 1.15 4.73 1.97 6.272 4.665 21.941 8.209 29.62 9.72 0.27-0.48 0.83-1.45 1.1-1.94 0.69 0.44 1.38 0.88 2.08 1.33 0.65 0.02 1.94 0.06 2.58 0.08 5.56 2.71 11.69 3.72 17.49 5.75 1.73 0.67 3.39-0.59 4.99-1.11 0.88-1.81 1.75-3.62 2.58-5.44 0.53-0.31 1.59-0.94 2.12-1.25 1.41-0.03 2.82-0.04 4.23-0.06 0.01 0.5 0.04 1.5 0.06 2 0.48 0.01 1.44 0.02 1.92 0.02-0.03 1.19-0.05 2.39-0.07 3.59-0.43 0.04-1.27 0.1-1.69 0.14 0.34 1.3 0.66 2.61 0.94 3.94 6.752 5.817 16.331 3.229 30.53 10.02 8.256 2.747 20.629 7.609 20.98 5.7 2.3-0.73 4.63-1.31 7.02-1.72l-1.27 1.64c-0.6 0.28-1.79 0.83-2.39 1.11 2.86-0.4 5.77-0.34 8.66-0.21l-0.35-1.29c1.03 0.09 3.07 0.27 4.09 0.37-0.57 1.41-1.14 2.84-1.7 4.27-0.55-0.06-1.64-0.18-2.19-0.25-0.42 0.56-1.27 1.66-1.69 2.21-6.18-1.86-11.95 2.47-18.16 1.77l0.12 1.4c-1.97-0.46-3.96-0.85-5.97-1.12 0.06 0.46 0.18 1.36 0.24 1.81-1.99 0.71-4.13 1.55-5.96-0.02-0.54 0.28-1.6 0.82-2.13 1.1-39.436-6.06-14.684-1.475-30.23-5.15-0.38-0.49-1.14-1.48-1.52-1.97-0.25 3.16-0.09 6.41-1.01 9.49 0.4 0.02 1.19 0.05 1.58 0.07 0.19 3.61 1.83 6.9 2.42 10.44-3.41 1.43-7.13 1.07-10.73 1.06l-0.2-1.56c-3.73 1.492-15.065-3.801-17.89-5.25 0.22-1.32 0.03-2.76 0.65-3.97 0.93-0.4 1.9-0.69 2.91-0.87 0.74-3.82 2.78-7.82 6.53-9.41-1.37-3.14-5.25-3.1-8.09-3.99-0.01-0.39-0.03-1.19-0.04-1.58-2.61 1.3-5.29-0.25-7.94-0.53-0.38-0.46-1.14-1.37-1.51-1.83-0.56-0.04-1.69-0.1-2.25-0.14-1.14-1.08-2.41-1.99-4.06-1.95-1.57-0.79-3-1.84-3.82-3.44-1.05 0.25-2.09 0.5-3.14 0.75-0.93-1.11-1.87-2.22-2.8-3.32-0.51 0.06-1.53 0.17-2.04 0.23-0.88-2.34-3.43-3.14-5.35-4.37-0.13-1.34-0.25-2.68-0.36-4-1.25-0.63-2.5-1.27-3.75-1.89-0.05-0.55-0.14-1.65-0.19-2.21l-2.28-1.72c0.05 0.7 0.16 2.09 0.21 2.78-2.349-5.505-7.372-6.144-5.71-10.67l-1.9-0.53z"/>
	<path d="m1034.2 475.4c0.58 3.98-0.94 8.25-4.83 9.92-3.6 1.59-19.36 15.578-25.88 17.06-2.58 2.26-5.93 3.18-9.18 3.98-2.3 2.2-4.46 4.61-7.32 6.11-0.53 3.63 1.8 9.16-2.39 11.18-11.407 1.942-17.55-2.131-17.83-4.56 0.208-0.558 11.171-10.414 11.6-10.81-5.461-5.349-14.195-3.402-22.5-12.25-1.64-1.84-4.38-1.57-6.36-2.73-4.43-3.12-8.21-7.03-12.07-10.8-1.19-1.16-1.59-2.88-2.26-4.31 1.04 0.132 38.932 15.625 54.47 15.72 0.89-2.71 4.17-5.67 6.97-3.63 0.59 1.43 0.53 3.02 0.68 4.55 40.963-13.675 26.103-6.597 36.9-19.43z"/>
	<path d="m1830.3 475.18c41.037 9.105 43.646 24.288 50.23 31.61 1.99 1.9 4.82 0.82 7.03-0.08 1.32-1.89 3.35-2.96 5.41-3.89 0.97 0.34 1.97 0.68 2.99 1.03 4.43-3.41 9.66-5.61 15.04-7.06 0.06-0.77 0.17-2.32 0.23-3.1 1.01 0.46 2.03 0.94 3.07 1.43-6.32 5.49-12.61 11.02-19.05 16.36-10.13 18.964-10.335 16.348-18.76 19.83-0.534 1.011-6.086 16.527-21.77 8.98-1.73-1.5-2.63-3.71-3.93-5.54 6.18-3.26 12.8-6.39 17.18-12.06-3.2-5.48-8.11-9.69-11.39-15.11-7.031-5.96-27.612-28.626-28.29-29.63 1.31 0.14 2.65 0.3 4 0.49-0.69-1.09-1.35-2.18-1.99-3.26z"/>
	<path d="m1323 513.46c0.94-0.82 1.9-1.63 2.87-2.44 4 2.87 8.5 4.91 12.57 7.67 4.7 0.5 8.82 3.34 13.6 3.37 2.08 0.12 3.68 1.6 5.4 2.62 0.876 0.067 18.107 5.282 18.74 5.41 2.26-0.48 4.28-1.78 6.58-2.26 0.85-3.38 3.98-5.4 7.4-5.31 0.51 1.68 1.3 3.25 2.41 4.64-0.83 1.48-1.66 2.96-2.49 4.43 0.74 1.03 1.49 2.07 2.26 3.12 5 0.14 9.52 2.8 14.29 4.08 1.66 0.17 3.78-0.68 4.95 1.05 1.68 0.01 3.54-0.46 4.98 0.75 3.33 0.81 6.57 1.94 9.79 3.17 1.46 0.15 3.21-0.28 4.27 1.15 10.961-0.307 5.941 1.735 18.52-1.33-0.1 0.65-0.28 1.95-0.37 2.6-4.09 0.37-8.13 1.43-12.25 0.97-3.05 1.87-6.33 3.3-9.47 4.98-2.84-0.19-5.17 1.74-7.92 1.99-13.81 2.006-13.941-0.27-17.2 1.92-6.51-1.84-13.1-3.39-19.78-4.32-0.8 1.27-1.86 2.32-2.83 3.43-1.27 3.95 1.53 7.72 0.87 11.73-2.62 0.97-5.38 1.28-8.14 1.18-3.698-0.229-7.807 3.813-15.36-3.74-2.86 0.05-4.02-3.01-6.13-4.39 0.86-0.94 1.73-1.87 2.61-2.79 3.91-1.71 6.79-5.16 10.9-6.48 0.2-0.99 0.41-1.97 0.63-2.94 0.38-0.24 1.13-0.71 1.5-0.94-1.006-0.283-10.365-2.669-12.28-2.73-2.24-0.79-4.49-1.54-6.78-2.1-0.34-0.42-1.02-1.26-1.37-1.68-4.612-0.903-16.889-12.779-17.43-13.78-1.58-0.98-2.84-2.24-2.89-4.19-0.85-0.86-1.71-1.72-2.53-2.55-0.35-1.76-0.7-3.52-0.98-5.27 0.52 0.12 1.58 0.35 2.11 0.47-0.27-0.37-0.79-1.12-1.05-1.49m3.37-0.2c0.46 0.54 0.46 0.54 0 0z"/>
	<path d="m1445.6 525.36c0.59-0.07 1.78-0.21 2.37-0.28 1 0.976 8.234 8.664 13.44 9.76 0.17 0.51 0.51 1.52 0.68 2.03 2.975-0.974 14.303 6.223 23.16 10.03 0.23 0.47 0.69 1.42 0.92 1.89 0.58 0.22 1.74 0.65 2.31 0.87 2.5-0.03 4.67 1.33 6.85 2.41 1.82 1.33 4.15 0.52 6.21 1.15 2.01-1.36 4.04-2.74 6.38-3.52 0.17-0.57 0.52-1.73 0.69-2.3 2.13 0.3 4.3 0.51 6.44 1.02 0.86 0.93 1.46 2.11 2.18 3.18-3.35-0.15-2.45 3.3-2.67 5.51 6.29 0.19 12.56-0.14 18.83-0.69 1.7 3.61 6.35-0.17 9.13 1.66 3.89 2.5 9.94-0.84 12.94 3.38-1.43-0.06-2.85-0.12-4.24-0.19l-0.03 0.47c1.4 0.05 2.82 0.11 4.26 0.17 1.785-1.57 13.802-4.1 30.87 3.03 0.23 0.89 0.49 1.8 0.78 2.71 1.21 0.8 2.41 1.66 3.59 2.57 0.11 1.15 0.24 2.31 0.4 3.48 1.67 0.46 3.18 1.3 4.4 2.57 5.62-2.53 7.13-9.17 11.3-13.29-2.092-0.758-6.324-5.412-6.73-6.77-0.48 0.24-1.45 0.71-1.93 0.95 0.54-1.62 1.07-3.26 1.83-4.8-0.22-0.29-0.65-0.87-0.86-1.17 5.9-2.28 11.95 0.57 17.93 0.85 2.059-0.277 14.891-3.539 18.5-7.94 1.45-0.05 2.93-0.07 4.43-0.09 0.14 2.22 0.53 4.61-0.73 6.62l-0.24 2.08c28.527 11.589 18.55 17.19 42.55 37.43-2.1-0.41-4.01-1.33-5.87-2.28 1.1 1.85 2.32 3.64 3.68 5.35-2.89-1.3-6.52-0.5-8.83-2.92-1.61-0.36-3.18-0.79-4.7-1.32-0.02 0.54-0.05 1.63-0.06 2.17-0.68-0.73-1.33-1.46-1.98-2.17-1.6-0.36-3.15-0.94-4.12-2.31-0.51 0.02-1.52 0.05-2.02 0.06-0.05-2.43-2.62-1.85-4.27-2.18-0.09-0.61-0.28-1.84-0.37-2.45-1.8-0.19-3.6-0.51-5.02-1.66-1.56 2.31-3.5 4.33-5.04 6.66-4.28 3.16-10.92 5.03-11.58 11.21-0.67 0.69-1.31 1.39-1.92 2.12-1.47 0.41-2.93 0.81-4.37 1.19-1.53-2.79-5-1.13-7.41-1.02 3.68 4.42 10.49 2.83 14.76 6.17 2.51-0.53 5.1-0.42 7.61 0.19-0.08 0.64-0.22 1.93-0.3 2.57-1.78 0.67-3.69 1.86-5.49 0.59-0.269 2.741-0.611 0.604-10.46 0.99-0.01 0.39-0.01 1.18-0.02 1.57-3.49 0.05-6.97-0.74-10.43-0.49-0.27 0.31-0.8 0.93-1.07 1.24-1e-3 0-29.229 1.18-29.23 1.18-2.29 2.2-6.33 0.49-8.25 3.26-2.41 3.41-5.18 6.9-5.65 11.19 0.56 0.07 1.7 0.21 2.27 0.28 2.112 5.047 11.356 20.537 12.1 21.57 0.09 0.54 0.27 1.62 0.36 2.17-0.8-0.34-2.4-1.02-3.21-1.36l1.02 1.69c-0.3 0.76-0.9 2.29-1.2 3.05-0.72-0.43-1.44-0.81-2.15-1.15-0.39 0.38-1.16 1.12-1.55 1.5-0.53-0.39-1.59-1.15-2.11-1.53-0.6-1.15-1.22-2.28-1.8-3.4-1.28 0.24-2.55 0.48-3.79 0.73-1.38-1.68-3.2-2.86-5.21-3.58-0.19-0.52-0.56-1.56-0.75-2.08-1.08-0.2-2.13-0.39-3.17-0.57-1.32-1.28-2.69-2.55-3.26-4.34-0.99-0.2-1.96-0.39-2.91-0.57-1.73-2.31-2.78-5.24-5.3-6.83-2.68-2.02-6.01-3.36-7.81-6.33-1.35-0.66-2.7-1.29-4.03-1.92-0.18-0.6-0.53-1.8-0.71-2.4l-2.4 0.12c-1.34 1.19-2.85 2.14-4.48 2.85-1.75 3.48-3.5 7.12-6.66 9.56-3.6-2.09-8.34 1.38-11.52-1.18-2.25 0.3-4.07-1.15-5.92-2.12 10.348-13.647 7.183-4.313 10.82-11.85-2.82-0.08-5.56 0.53-8.26 1.22-4.53 2.72-7.97 7.32-13.35 8.54 0.13 0.3 0.37 0.89 0.49 1.19-1.52 0.22-3.03 0.47-4.5 0.74 0.09-0.58 0.27-1.73 0.36-2.3 3.38-3.33 6.87-6.56 10.13-10.01 3.11-0.61 4.05-3.49 4.15-6.3 0.64-1.21 1.29-2.41 1.95-3.6 3.47-1.39 5.43-5.56 9.41-5.68 0.87-1.79 1.2-3.75 1.4-5.7 0.39-0.08 1.17-0.25 1.57-0.34-1.18-0.26-2.34-0.5-3.48-0.74-0.16-0.58-0.49-1.73-0.66-2.31-0.71 0.09-2.13 0.26-2.85 0.35-2.59-2.33-5.19-4.72-8.25-6.41-1.09-1.75-1.83-4.01-4.01-4.62l-0.68-1.64c-0.55-0.06-1.66-0.17-2.21-0.22-0.81-0.88-1.61-1.74-2.4-2.6-0.02 0.49-0.05 1.47-0.06 1.96-4.969 7.027-12.594 9.651-19.89 4.39-0.17-0.55-0.52-1.66-0.7-2.22-0.59-0.14-1.78-0.43-2.38-0.57-0.01-0.89-0.03-2.65-0.04-3.54 1.17-1.01 2.32-2.07 3.43-3.17 2.72-0.38 4.4-2.35 5.17-4.88 0.95-0.35 1.92-0.68 2.92-1 0.18-0.81 0.54-2.42 0.72-3.22-6.198-6.02-6.644-1.681-20.6-11.67-5.11-3.16-6.55-10.56-12.94-11.97 0.42-2.28 0.18-4.59-0.18-6.85-1.04-0.65-2.07-1.28-3.06-1.91-1.14-2.6-2.92-4.87-3.86-7.55 0.84-1.11 1.69-2.22 2.5-3.37m88.53 42.98c-3.85-0.62-7.95-0.5-11.08 2.09-2.1-0.8-3.76 0.82-5.48 1.68 2.04 1.17 4.06 2.41 6.06 3.68 0.13 0.46 0.38 1.38 0.51 1.85 2.71 0.78 4.41 3.33 7.15 4.07 1.42 2.87 4.64 2.35 7.33 2.32 0.94-1.26 1.93-2.49 2.93-3.7 0.99 0.14 1.98 0.28 3.02 0.46 1.01-0.17 2.04-0.33 3.1-0.48 0.11 0.73 0.33 2.18 0.44 2.91 0.56 0.15 1.68 0.45 2.24 0.6 1e-3 0 23.709-0.32 23.71-0.32-2.921-1.536-13.508-5.637-15.78-6.72-13.806-2.167-14.34-3.34-13.87-5.48-0.54 0.09-1.63 0.29-2.18 0.38 0.08-1.18 0.19-2.34 0.32-3.5l-1.62 0.46c0.37-2.39 2.51-3.37 4.31-4.51-3.65 1.59-8.02 1.51-11.11 4.21m78.76 16.77c-0.06 0.42-0.18 1.27-0.24 1.7-0.45-0.12-1.36-0.34-1.82-0.45-0.802 2.266-0.807 2.823-2.91 6.24-0.32 3.36-3.02 5.13-5.29 7.19 1.14-0.94 2.44-1.43 3.92-1.49l0.82 1.53c3.74-0.77 7.49 0.41 10.77 2.23-0.35-3.42-3.9-3.56-6.4-4.57-0.74-1.89-3.55-3.52-1.83-5.69 1.66-0.69 3.54-0.56 5.22 0.09 0.04-0.64 0.13-1.91 0.17-2.54 1.12 0.07 2.26 0.14 3.42 0.23 0.57-1.58 1.52-2.96 2.59-4.23 1.32-0.15 2.66-0.32 4-0.51-4.201-0.97-8.28 1.24-12.42 0.27m-36.36 2.41c-1.31 0.4-2.61 0.78-3.89 1.15l-0.03 1.11c-1.12-0.24-2.22-0.48-3.3-0.72-0.96 1.09-1.89 2.18-2.8 3.29-1.93 0.78-3.82 1.61-5.73 2.38 2.51-0.64 4.83 0.58 7.25 1.08 2.34 0.16 4.69-0.14 7.05-0.12 2.22 3.07 4.89-1.68 7.76 0.18 0.18-1.35 0.76-2.46 2.09-2.95-2.96-0.61-2.46-4.43-4.88-5.75-1.16-1.22-3.06-1.77-3.52 0.35m-22.801 23.13c3.48 0.44 7.52 1.11 8.71 5.01 0.82-1.39 1.65-2.78 2.45-4.18-1.76 0.03-3.51 0.08-5.22 0.14-0.699-2.77-3.959-0.73-5.94-0.97z"/>
	<path d="m290.11 534.95c3.83-1.56 7.98 1.42 11.68-0.71 7.924 0.901 7.652 11.086 15.47 5.04 0.13-3.7 4.51-4.35 7.41-3.84 3.73 3.14 0.17 8.03 2.49 11.68 1.94-0.31 4.82 0.73 5.47-1.86 7.015 0.39 7.52 0.146 10.11 1.21 4.598 4.676 9.182 8.67 15.04 32.57-0.26 3.55-0.55 7.1 0.12 10.65-0.89 0.03-2.66 0.11-3.55 0.15-0.09-0.9-0.17-1.78-0.25-2.66-0.51 1.74-1.65 2.7-3.43 2.88-0.28-1.52 0.09-3.67-2.03-3.74-0.15-2.36-1.71-4.66-4.17-5.01l0.14-0.59c-0.92-1.58-1.98-3.06-3.23-4.37l-1.01 0.54c-0.08-1.28-0.17-2.56-0.27-3.82-2.28-0.32-5.35-0.34-4.74-3.55l-0.95-0.08c0.09-0.43 0.26-1.29 0.35-1.71-3.44-0.36-6.74-1.43-10.08-2.23-0.65-1.44-2.12-1.52-3.49-1.63-0.45 1.43-1.37 2.59-2.5 3.56 0.77 4.85 1.31 9.74 2.21 14.58-6.462 1.866-2.925-1.314-12.57 0.83-0.04-0.45-0.14-1.33-0.19-1.78-1.76 0.56-3.59 0.71-5.42 0.73-0.49-1.92-2.46-1.95-4.04-2.39-0.66-1.17-1.92-1.53-3.1-1.9-0.03-2.89-2.36-3.7-4.71-4.42-0.49-1.21-0.43-2.56-0.63-3.83 1.53-0.73 3.59-0.93 4.35-2.66 3.53-1.63 6.37-4.64 10.31-5.35-0.02-0.1-0.05-0.29-0.07-0.38-2.31-0.35-4.4-1.41-6.5-2.34l0.17-0.77c-3.638-0.817-2.105-1.081-7.1-2.27l0.04-0.78c-2.35-0.07-4.68-0.43-7.01-0.61-0.23 0.4-0.67 1.22-0.9 1.62-5.17-0.67-9.98 2.98-15.05 1.82-5.149 1.261-3.903 1.578-8.67 2.74 0.46-1.17 0.93-2.33 1.41-3.48-1.21 0.47-2.42 0.94-3.63 1.41 5.443-10.842 23.817-14.306 19.51-17.94 4.7-0.72 8.23-4.65 13.01-5.31z"/>
	<path d="m900.85 547.92c14.73 11.979 24.867 8.592 43.7 27.95 3.89 0.94 6.47-2.32 8.87-4.77 0.63-0.03 1.91-0.09 2.55-0.12 0.4 0.57 1.2 1.71 1.6 2.27-0.25 1.85-0.46 3.7-0.66 5.57 2.934-0.909 13.866-6.578 28.9-2.98 1.35-0.57 2.7-0.73 3.75 0.49-2.92 2.64-6.11 5.29-10.07 6.1-4.897 4.28-23.153 8.615-25.53 8.7-8.239 7.316-6.824 5.144-6.86 17.85-4.547 2.363-17.974-0.672-21.29-4.89 4.677-7.09 7.173-3.465 11.61-13.51-8.58-5.17-15.19-12.81-23.06-18.86-1.125-1.76-8.125-9.832-8.84-10.36-1.37-2.65-3.12-5.06-4.89-7.43 0.04-1.27-0.55-2.45-0.95-3.59 0.9 0.4 2.69 1.2 3.59 1.6-0.83-1.34-1.64-2.68-2.42-4.02z"/>
	<path d="m1558.4 553.97c1.87-0.37 3.75-0.67 5.65-0.97-0.16 1.48-0.28 2.97-0.4 4.46-3.039 1.207-5.275 2.315-7.67 3.4-0.08-1.77 0.71-3.21 1.95-4.38 0.12-0.62 0.36-1.88 0.47-2.51z"/>
	<path d="m1140.4 555.89c0.43-0.19 1.29-0.59 1.72-0.79 4.1 1.4 9.07 0.04 12.56 3.12 4.39 3.37 6.44 8.66 9.78 12.92 3.49-1.15 6.91-2.99 8.61-6.43 2.01 0.03 3.89 0.69 5.47 1.96 2.49-1.66 5.33-3.6 8.49-2.7 1.81 1.13 3.25 2.76 4.83 4.2 4.889 11.733 0.888 13.939-3.25 20.19-3.77-2.63-7.47-5.63-12.12-6.47-3.23 4.99-6.83 9.9-11.95 13.11 0.26 1.14 0.53 2.29 0.82 3.45 3.43 0.84 6.43 2.94 9.94 3.51 3.79-3.44 8.17-6.1 12.75-8.34 0.37 0.08 1.12 0.24 1.49 0.32 6.787-4.726 9.043-0.398 14.81 2.85 1.43 0.12 2.89 0.36 4.23 1 1.48 0.01 2.96 0 4.46-0.01 1.65-2.52 3.13-6.86 6.96-5.94 2.3-0.01 2.4 2.86 3.46 4.34-0.42 0.51-1.27 1.53-1.7 2.03 12.899-7.009 16.025-1.17 21.73 3.39 2.411 1.533 12.934 13.697 14.87 18.94 2.15 2.06 2.92 5.01 3.57 7.83-2.11-0.48-3.63-1.96-4.91-3.58 0.47 1.51 0.89 3.04 1.25 4.61-2.59-0.96-4.34-3.19-6.38-4.9 0.11 0.98 0.34 2.93 0.45 3.9-2.12-0.23-3.49-1.8-4.73-3.33-0.51-0.04-1.53-0.1-2.04-0.13-1.61-1.3-3.29-2.48-4.99-3.61-1.882-0.29-12.725-6.728-14.14-8-2.85-0.16-5.69-0.24-8.52-0.32-1.34 1.3-2.7 2.58-4.13 3.79 4.28-1.92 9.25-2.62 13.81-1.45 3.59 0.78 0.42 4.13 0.67 6.38-10.441 8.842-14.081 6.568-23.66 10.84-3.22 6.95-8.25 13.77-15.95 15.98-1.62 3.38-2.8 7.04-4.98 10.12-2.92 0.87-6.34 0.67-9.24-0.33-5.9 0.55-9.34-4.8-13.12-8.34 1.68-1.78 3.74-3.26 6.3-3.28 3.22-2.55 7.06-4.01 10.78-5.64-10.671-16.331-9.875-17.272-14.09-21.34-1.22 0.75-2.43 1.5-3.64 2.26-0.25-0.64-0.75-1.91-1.01-2.54-1.68 0.77-3.37 1.52-5.08 2.2 1.61-2.64 3.29-5.28 5.55-7.42-6.29-0.09-8.55-8.46-14.91-8.36-0.3-0.44-0.9-1.32-1.2-1.75-1.23-0.05-2.45-0.08-3.66-0.1-1.03-1.31-2.05-2.63-3.02-3.96 1.7-1.81 3.52-3.5 5.62-4.86-0.45-0.74-0.87-1.48-1.28-2.2 2.33-0.15 4.69-0.36 6.97-0.99 1.28-1.99 4.05-3.4 4.1-5.95-7.182-16.02-32.036-14.533-38.13-16.3-0.06-1.8-1.21-2.75-2.88-3.1 0.52-0.52 1.57-1.55 2.09-2.07-0.52-0.23-1.56-0.68-2.08-0.91 5.693-6.087 21.584-7.696 28.65-7.8m44.559 54.1c0.18 3.75 2.35 6.88 4.36 9.9 2.7-1.9 7.16-3.23 7.45-7.01-3.719-1.66-7.649-3.25-11.81-2.89z"/>
	<path d="m513.74 598.06c0.691 0.065 40.021 12.311 53.23 17.88 7.557-1.658 10.383-11.488 13.41-5.86 0.25 1.62 0.12 3.27 0.13 4.91 8.47-2.64 17.19-4.97 26.07-5.22 1.19-1.64 3.25-1.02 4.98-1.09 4.7-1.17 7.59-4.93 11.2-7.77-0.568 7.578-33.624 25.095-45.55 28.59-1.56 2.01-3.09 4.05-4.78 5.95 3.53 4.02 7.48 7.67 11.29 11.44 0.01-1.36 0.01-2.71 0.01-4.05 1.38-0.91 2.63-2.54 4.49-2.19 2.02 1.12 3.35 3.03 3.42 5.38 12.791-14.306 10.968-10.367 20.54-11.29 14.704 7.132 16.297 13.329 12.06 13.8 0.01 0.69 0.04 2.08 0.05 2.78-2.83-1.14-5.84-0.57-8.36 1.04-0.48-0.31-1.45-0.93-1.93-1.24-2.46 0.14-4.93 0.14-7.38 0.25-0.91-1.03-1.87-2.04-1.95-3.47-1.54 2.75-4.51 4.08-7.49 4.62-1.75 1.91-2.66 4.24-1.81 6.83-1.14 1.79-2.42 3.49-3.84 5.08-0.08 0.52-0.26 1.57-0.35 2.09 1.89 1.66 0.96 4.35 1.12 6.53-3.49 2.21-7.89 2.34-11.06 5.13-2.52 0.05-5.05 0.07-7.57 0.1 0.01-2.06 0.78-3.86 2.08-5.39-0.19-3.37 3.9-6.69 1.33-9.74-0.89-3.73-3.58-6.48-6.38-8.9-2.45-0.36-5.21-1.63-5.31-4.47-0.93 2.16-1.96 5.2-4.91 4.64-4.96 1.5-10.09 4.26-15.3 2.08-1.29 0.57-2.61 0.7-3.81-0.15 0.57-1.1 1.19-2.12 1.77-3.19-0.65 0.39-1.93 1.18-2.57 1.57-0.878-5.718 9.436-14.21 17.32-16.88 0.62-1.44 1.25-2.86 1.93-4.27-0.07-1.02-0.14-2.04-0.19-3.04-5.12-1.88-10.7-2.91-15.21-6.11-0.58-0.04-1.74-0.11-2.32-0.15-0.55-0.96-1.1-1.92-1.64-2.87-8.88-0.705-24.304-14.892-26.72-23.35z"/>
	<path d="m754.1 614.58c1.44 0.24 2.84 0.11 4.21-0.4 11.61 7.12 25.94 5.6 38.35 10.42 4.44 2.16 8.8 4.56 13.48 6.21 3.99 1.22 7.39-1.75 10.45-3.84 2.25-0.28 4.65 0.12 4.69 2.89 15.441-6.553 13.696-4.363 23.16-4.96 6.864-3.766 6.409 3.911 18.5-6.36-0.36 1.09-0.72 2.19-1.06 3.29-1.92 1.132-14.022 7.954-16.35 8.52-15.534 11.958-22.984 4.477-34.16 20.18-0.56 3.22-0.59 7.18-3.63 9.21-3.79 1.58-8.14 3.08-12.1 1.15 2.79-4.87 5.75-9.8 6.4-15.5-1.4-1.63-3.71-1.42-5.58-2.04-5.14-0.41-9.51-3.31-14.01-5.52-1.48-0.68-2.84-1.56-3.97-2.7-0.56-0.04-1.69-0.1-2.25-0.13-0.38-0.43-1.13-1.29-1.51-1.72-4.498-0.895-17.168-11.41-23.49-15.51 0.55-1.27-0.31-2.31-1.13-3.19z"/>
	<path d="m922.57 631.98c9.123-10.316 7.374 1.968 7.54 3 3.84 0.04 7.67 0.05 11.51 0.03 9.417 8.545 5.286 27.019 0.42 33.82-0.3-0.77-0.89-2.3-1.19-3.06-0.8 1.24-1.7 2.41-2.75 3.46-0.3-3.05 0.27-6.05 1.24-8.93-0.8 1.04-1.81 1.64-3.02 1.79-1.47-1.88-1.09-4.39-1.86-6.52-0.75-2.01-2.15-3.68-3.38-5.4-1.69-0.31-3.34-0.76-5.02-1.01-1.33 0.66-2.51 1.57-3.75 2.37-0.771 1.666-2.173 7.541-2.32 12.43 0.63 0.04 1.89 0.12 2.51 0.16 26.926 15.785 23.05-2.801 31.17-1.01 1.35 1.36 2.39 2.99 3.53 4.54-0.49 0.41-1.47 1.22-1.96 1.62-0.44 1.18-0.89 2.37-1.33 3.57 4.18 1.66 8.75 0.78 13.05 1.92 13.1 0.1 24.91 8.1 38.13 7.34 4.66 0.38 8.42-2.77 12.53-4.39-1.928 2.814-3.618 4.424-25.54 11.3-3.85-1.13-8.03-0.54-11.7 0.91-4.464-0.64-24.285 3.087-33.04-0.01-1.52 2.12-3.57 3.73-6.02 4.62-4.42 10.322 0.472 13.97-9.78 13.26-1.75 0.052-11.809-0.934-13.55-1.91 0.02-0.61 0.05-1.81 0.06-2.41 11.013-11.205 8.123-8.776 12.05-17.44-7.162-0.04-11.547-2.49-16.62-3.22-1.67-1.23-3.35-2.43-4.96-3.7-0.5-0.05-1.5-0.14-2-0.18-1.95-1.54-3.95-3-5.87-4.57-2.83-0.92-4.97-3.02-7.35-4.69-0.51-0.83-1.02-1.64-1.52-2.45-7.236-1.193-1.401 1.542-13.7-9.6 0.25-0.35 0.73-1.06 0.97-1.41-1.79-0.52-3.2-1.71-4.39-3.07 3.17 1.32 6.24 2.99 9.64 3.72-2.75-1.66-5.58-3.28-7.69-5.75 1.58 0.86 3.26 2.04 5.2 1.6 3.17 2.61 7.03 4.11 10.61 6.06 3.73 0.45 7.33 1.61 11 2.38 3.17-4.75 6.77-9.33 8.22-14.98-2.49-2.74-5.39-5.08-8.55-6.97-5.275-0.838-19.787 3.391-20.75 0.14-1.9 2.14-4.27 3.97-7.28 3.87 0.56-0.79 1.68-2.37 2.24-3.16-0.95 0.27-2.85 0.82-3.8 1.09 0.7-1.44 1.42-2.96 2.78-3.9 37.755-27.936 35.1-6.834 46.29-5.26z"/>
	<path d="m1486.9 648.37c0.48-0.08 1.43-0.23 1.91-0.3 0.15 3.03 0.25 6.07 0.68 9.09 2.66 2.74 3.71 6.63 5.22 10.08-0.59 0.41-1.76 1.22-2.35 1.62 0.61 0.15 1.82 0.44 2.42 0.58-0.45 1.33-0.88 2.66-1.31 4 0.48 3.76-2.64 6.34-4.99 8.76 3.69 5.115-7.146 11.555-10.78 12.58-0.07-1.61-0.09-3.2-0.06-4.78 1.29-2.64 1.92-5.55 3.31-8.15-1.09-1.24-2.32-2.31-3.46-3.45-5.97-0.15-11.94 0.18-17.91-0.11 0.75-0.62 1.47-1.27 2.16-1.97-2.63 0.45-5.27 0.59-7.85-0.05 1.28 0.4 2.74 0.6 3.57 1.87-6.06 0.22-12.11 0.03-18.11 0.96-0.34-1.43-0.59-2.86-0.76-4.3 2.68-3.2 7.14-3.92 10.74-5.7 0.32 0.22 0.96 0.66 1.28 0.89 0.25-0.44 0.76-1.33 1.02-1.77 5.12-1.89 10.02-4.99 15.67-4.92 2.07 1.08 4.47 0.9 6.58 0 3.58 1.43 7.27 3.7 11.15 1.73-0.39-2.83-0.94-5.87 0.6-8.47-0.23-2.8 0.62-5.51 1.27-8.19z"/>
	<path d="m1334.4 657.62c5.667 0.243 5.383 1.579 4.07 6.8 3.29 1.9 7.02 2.92 10.34 4.79 3.52 3.88 7.18 7.74 9.74 12.38 2.18 4.97 8.52 4.69 11.97 8.36 0.63 0.02 1.89 0.07 2.52 0.09 3.05 4.14 7.75 6.31 11.5 9.7 9.981 1.54 20.566-19.355 22.35-22.39 0.44-0.01 1.33-0.04 1.77-0.05-0.1-1.39-0.18-2.77-0.24-4.14 0.62 0.01 1.86 0.02 2.48 0.03-0.84 3.84-0.17 8.48-3.35 11.37-3.39 3.88-4.92 9.11-8.76 12.59 0.43 0.44 1.27 1.32 1.69 1.75-0.853 6.861 0.102 12.335-9.36 22.32-1.46 0.53-2.94 0.95-4.35 1.53-0.61 1.53-0.95 3.15-1.38 4.74-0.47 0.18-1.4 0.54-1.87 0.72-1.86 2.49-5.05 3.27-7.36 5.24-2.65 0.13-5.2-0.54-7.69-1.32-0.292-5.096 7.172-5.92 8.71-16.74-4.82-2.3-8.99-5.69-13.65-8.27-0.46-2-2.49-2.56-3.97-3.58-5.07-3.19-10.04-6.73-13.78-11.46-2.87-3.64-6.16-7.12-10.43-9.07-1.84-1.86-4.35-2.6-6.69-3.55-0.81 0.53-1.61 1.07-2.38 1.62-0.13 2.44-0.56 4.86-1.05 7.26-7.281 4.614-21.083 0.05-20.38-2.38 3.25-2.63 6.4-5.52 10.21-7.33 0.09-0.72 0.27-2.17 0.36-2.89 0 0-8.233 4.193-17.08 9.29-0.08-0.65-0.23-1.95-0.31-2.6 2.25 0.17 3.6-1.09 3.27-3.38 4.71-5.34 10.29-9.84 15.03-15.14 5.834-2.08 14.122-1.44 18.07-6.29z"/>
	<path d="m1717.6 663.7c1.35-2.39 3.7-3.12 6.35-2.77-0.01 2.02 0.01 4.05 0.04 6.09 42.025 0.367 30.023 2.004 42.36-0.15-1.63 1.146-7.276 6.25-26.03 10.39-0.43 0.41-1.28 1.24-1.7 1.66-4.5 0.81-9.11 1.66-13.68 1.18-2.46 1.28-5.25 0.74-7.88 0.85-7.988 5.522-7.455 6.065-10.36 11.85-8.907 2.239-13.427 3.611-19.81-0.71 5.15-3.58 10.84-6.85 14.51-12.08-13.006 0.929 0.815 3.407-28.84-0.14-2.3-2.26-5.32-1.88-8.05-0.81-0.15-0.59-0.46-1.77-0.61-2.37-1.24-0.85-2.4-1.79-3.47-2.79 12.62-0.272 11.722 1.873 31.72-3.57 7.39-1.84 15.13-1.96 22.38-4.48 0.99-0.74 2.029-1.44 3.07-2.15z"/>
	<path d="m1411.2 667.03c0.58 0.07 1.74 0.2 2.31 0.26 0.1 0.69 0.3 2.06 0.4 2.75-0.65-0.06-1.95-0.19-2.6-0.26-0.02-0.69-0.08-2.06-0.11-2.75z"/>
	<path d="m1892.8 730.18c1.1-0.28 2.22-0.56 3.37-0.83 12.618 7.827 26.026 5.946 32.8 7.81 14.872-1.588 22.932 4.464 29.62 0.58 2.96-2.73 5.53-6.67 10.17-5.99 0.58 1.26 1.2 2.53 1.81 3.8-1.28 1.99-2.16 4.19-2.87 6.44 2.98 1.24 6.14 1.95 9.29 2.7v19.14c-2.744-0.545-11.887-1.013-18.21-3.81-14.087 9.077-8.151 9.061-13.97 14.86-5.89 1.21-12.25-0.49-16.82-4.36-0.22-1.27 1.01-1.97 1.8-2.75 4.68-4.03 10.33-7.66 12.67-13.66-12.602 3.404-26.423-4.605-37.87-10.8 0.86-0.23 2.58-0.68 3.44-0.91-2.64-2-6.17-0.99-9.05-2.25-0.987-0.865-4.015-3.993-8.31-9.46 0.98 0.41 2.95 1.25 3.93 1.66l-1.8-2.17z"/>
	<path d="m338.6 744.17c0.8-0.81 1.6-1.6 2.41-2.37 0.39 0.37 1.16 1.11 1.55 1.49 1.49 0.05 2.99 0.32 4.36 0.97 1.53 0.02 3.06 0.04 4.6 0.05 0.21 0.42 0.62 1.26 0.82 1.67 29.866-4.986 34.717 10.304 38.21-0.62 2.06 0.06 4.13 0.19 6.17 0.55-0.08 2.68-0.12 5.36-0.12 8.05 3.02 2.55 16.94 14.78 20.84 18.4 0.17 0.59 0.51 1.77 0.68 2.37 4.38 2.69 6.95 7.47 11.37 10.12 2.35 1.49 5.21 2.71 5.95 5.71-0.71 0.01-2.13 0.02-2.84 0.02 1 0.33 2.02 0.67 3.03 1l-0.35 1.29 1.37-0.53c0.09 0.66 0.28 1.97 0.38 2.63-1.72-0.25-3.44-0.47-5.16-0.65-1.46-1.23-3.13-1.96-4.92-0.89-2.16-1.24-4.37-2.65-6.97-2.36-1.33-0.32-2.67-0.64-3.99-0.95-1.4-0.78-2.84-1.51-4.41-1.85-1-0.96-1.96-1.94-2.91-2.92-1.533 0.231-8.218-4.134-9.22-4.85-0.45-0.02-1.36-0.06-1.81-0.09-0.21-1.88-1.45-2.65-3.18-2.75-0.92-0.47-1.85-0.93-2.77-1.38-1.86-1.68-3.74-3.33-5.61-4.99-0.13 0.6-0.41 1.81-0.55 2.42-0.42 0-1.26 0-1.68-0.01-0.65 1.9-1.24 3.83-1.39 5.86-1.17 1.87-2.59 3.62-3.38 5.72-2.39 1.25-5.07 1.31-7.7 1.31-0.85-1.19-1.68-2.38-2.49-3.58-1.08 0.7-2.18 1.37-3.3 2.02-0.12-0.76-0.38-2.28-0.5-3.04-0.59-0.1-1.76-0.29-2.35-0.39 0.03-1.43-0.64-2.59-1.43-3.67 0.04-1.08 0.1-2.15 0.16-3.21 2.64-0.3 1.62-3.95 4.09-4.51 2.83-1.26 4.75-3.77 7.33-5.39-0.53-0.41-1.61-1.22-2.15-1.62-2.51 0.76-5.01-0.08-7.43-0.75-0.07-0.36-0.23-1.06-0.3-1.41-1.35 0.11-2.99 1.21-4.03-0.23-1.77-0.7-3.58-1.27-5.4-1.82-0.11-0.75-0.34-2.25-0.45-3-1.24 0.28-2.46 0.57-3.69 0.86l-0.15-0.99c-1.57-1.01-3.06-2.19-4.89-2.69-1.5-1.43-3.07-2.9-5.32-2.59 0.19-0.45 0.58-1.34 0.78-1.79-1.1-0.43-2.19-0.85-3.28-1.26-0.39-1.97-1.54-3.59-3-4.91 1.66 0.51 3.34 1.05 5.02 1.55z"/>
	<path d="m1565.5 791.5c0.95-0.04 1.92-0.08 2.91-0.1 1.36 0.41 2.75 0.81 4.16 1.22 1.74 2.29 4.27 3.35 7.15 2.84 0.85-1.01 1.75-1.97 2.63-2.96 2.64-1.19 5.61-1.33 8.28-0.1 0.75 2.6 1.15 5.31 0.13 7.91 1.54-0.02 3.12-0.01 4.71 0.01 0.53 2.7 3.18 1.06 4.99 0.9-0.01 2.46 1.69 3.98 4.04 4.33 1.91 3.58 3.72 7.34 4.12 11.44 0.14 2.26-1.98 5.62 1.08 6.68-0.15 5.39 0.02 10.79-0.02 16.2-0.85 0.4-1.69 0.82-2.5 1.24 0.29 1.73 0.41 3.48 0.5 5.25-1.39 0.85-2.29 2.19-3.07 3.58-1.41-2.06-2.91-4.1-5.01-5.48-3.505-5.408-2.812-4.535-4.39-9.5-4.21-1.763-7.514-9.547-7.92-10.55-1.67-2.05-3.42-4.17-5.99-5.04-0.08-0.45-0.23-1.34-0.31-1.79-1 1.52-1.95 3.08-2.94 4.61-0.3 1.48-0.66 2.99-2.53 3 0.49 1.05 1.01 2.12 1.53 3.2-2.37 1.93-5.7 2.03-7.93 4.05-2.88-0.03-5.74-0.36-8.57-0.75-0.88 0.33-1.73 0.68-2.57 1.03-1.66-2.41-5.29-2.72-6.01-5.89-1.51-0.37-3.04-0.3-4.52 0.05-0.4-1.18-0.81-2.33-1.22-3.47 0.197-5.739 3.641-5.91 6.45-15.12 0.41-0.38 1.24-1.13 1.66-1.51 0.06-0.57 0.18-1.7 0.25-2.27 1.39-1.51 2.44-3.3 3.07-5.26 0.29 0.05 0.88 0.15 1.17 0.2 1.16-3.42 4.33-5.4 6.67-7.95m-9.88 22.93c-0.57 0.17-1.73 0.51-2.31 0.68 0.1 2.46-0.03 4.92-0.74 7.29-0.49 0.3-1.45 0.88-1.93 1.18 0.99-0.25 2-0.5 3.02-0.74 2.25-3.06 5.77-4.8 8.18-7.72-1.8-0.26-3.6-0.5-5.38-0.67-0.13-0.32-0.39-0.97-0.52-1.29-0.081 0.32-0.24 0.95-0.32 1.27z"/>
	<path d="m1164.5 800.29c4.07-4.632 10.35 4.465 16.61 8.38 1.56-1.34 3.1-2.69 4.62-4.08 1.24-0.07 2.49-0.13 3.76-0.17 0.7 0.67 1.4 1.35 2.13 2.04 0 4.1 0.13 8.21 0 12.31-8.541 7.069-24.314 8.178-29.43 7.94 0.08-1.22 0.18-2.42 0.29-3.61 1.82 0.1 4.01-0.43 5.33 1.26 0.87-0.28 1.73-0.58 2.63-0.84-0.66 0.1-1.99 0.3-2.66 0.4-0.51-2.65 2.68-3.66 2.51-5.95-3.76-4.98-7.06-11.28-5.79-17.68z"/>
	<path d="m187.88 826.49l1.97-0.85c0.02 0.45 0.05 1.34 0.06 1.79 33.015 11.555 37.303 12.285 43.21 16.74 5.53 3.21 10.62 8.21 17.47 7.97 1.28-1.42 2.59-2.81 3.88-4.21 1.4 0.14 2.9-0.09 4.23 0.5 0.63 2.09 0.27 4.34 0.35 6.51 2.06 0.51 4.19 0.86 6.29 0.38 16.78-2.24 33.699 5.123 47.33 5.95-1.51 1.63-3.74 2.37-5.18 4.1-0.78 0.45-1.55 0.9-2.33 1.36-1.51-0.42-3.07-0.65-4.62-0.79-1.49 2.01-3.81 2.3-6.14 2.15-0.41 0.46-1.25 1.38-1.66 1.84 0.69 0.13 2.08 0.38 2.78 0.51-2.19 0.18-4.39 0.22-6.59 0.3-1.17 0.47-2.35 0.93-3.54 1.39-0.09-0.59-0.28-1.78-0.38-2.37-1.24 0.65-2.47 1.32-3.68 2.04-1.74-0.31-3.39-0.95-4.73-2.11-5.12 0.89-10.49-0.58-15.43 1.4 4.43 3.91 8.69 8.02 13.06 11.98-0.62-0.07-1.84-0.21-2.45-0.28-0.36-0.45-0.36-0.45 0 0 0.26 0.8 0.77 2.39 1.03 3.19-0.5-0.48-1.51-1.45-2.01-1.93-2.06 2.24-3.55-0.35-4.8-1.93-0.59-0.08-1.76-0.24-2.35-0.32-1.3-0.62-2.73-0.8-4.13-0.97-0.97-0.5-1.94-1-2.91-1.49-3.51-0.64-6.94-1.63-10.39-2.5-0.17 1.6-0.2 3.29-0.97 4.78-0.07 0.56-0.21 1.69-0.28 2.25-3.47 0.18-6.82 1.51-10.32 1.06-1.56-1.02-3.44-0.89-5.2-1.01-1.22-0.94-2.43-1.89-3.64-2.83 2.83-2.8 5.56-5.71 8.01-8.85-3.8-0.32-7.52-1.36-11.35-1.3-0.76 0.82-1.53 1.65-2.29 2.49-0.42 3.88-1.42 7.7-1.18 11.64-3.86-0.21-8.21 0.86-11.51-1.7-4.405-2.16-10.305-5.082-9.63-9.92-1.23-1.26-2.38-2.61-3.25-4.13 0.338-0.091 13.021-3.413 14.24-3.65-0.871-1.008-13.619-12.503-21.24-13.8-2.49-1.6-5.1-3.01-7.8-4.19-0.3-0.36-0.88-1.09-1.18-1.46l-2-0.4c-1.73-1.63-5.78-1.7-5.42-4.68-2.13-0.07-4.26-0.14-6.39-0.18 0.77-0.31 2.3-0.92 3.07-1.23-0.52-0.45-1.55-1.36-2.06-1.81 9.68 1.28 19.42 2.58 29.21 2.02-4.053-4.706-8.601-11.077-9.33-12.08 1.33 0.6 2.72 0.83 4.16 0.7-0.64-0.72-1.31-1.41-1.99-2.07z"/>
	<path d="m1351.6 852.63c3.85-1.39 9.04-1.63 11.06 2.73 1.09 0.91 2.19 1.82 3.3 2.77-0.51 2.77 1.96 7.27-1.7 8.44-0.06 0.55-0.18 1.64-0.24 2.18-1.09 0.65-2.15 1.32-3.2 2.01-1.84-0.7-3.62-1.54-5.51-1.99-2.54-0.05-4.96 2.04-7.4 0.54-0.96 3.06-1.1 6.66-3.53 9.03-5.088 4.606-18.418 14.29-24.29 14.57-0.45-0.2-1.34-0.6-1.79-0.8 0.91-1.49 1.82-2.98 2.69-4.49 0.44-0.18 1.31-0.54 1.75-0.73 0.07-3.13 1.65-5.88 2.99-8.61-4.79-1.79-10.2-1.96-15.08-0.6-7.61 4.12-16.2 6.03-23.68 10.4-1.376-0.446-2.566-0.629-5.39-2.93 1.88-1.96 3.75-3.94 5.28-6.2 10.85-6.66 20.19-16.62 33.07-19.29 4.08 0.4 8.28 1.81 11.59 4.31 0.52-0.03 1.57-0.08 2.1-0.11 3.32-1.27 6.55-2.89 8.34-6.14 1.27 0.07 2.55 0.16 3.84 0.25 1.83-1.88 3.81-3.62 5.8-5.34z"/>
	<path d="m391.94 856.98c1.48 2.64 3.73 4.7 5.96 6.73 1.31-0.72 2.65-1.4 4.01-2.02 0.23-0.56 0.67-1.69 0.9-2.25 1.66 0.3 3.34 0.65 5.01 1-0.11 2.08-0.23 4.15-0.35 6.24 8.76-2.118 10.536-3.601 16.84 1.16 1.3 1.9 2.65 3.77 4.11 5.57 1.89 5.49 1 11.3 0.97 16.98-2.18 0.99-0.76 3.56-1.03 5.32-5.93 0.05-10.08-4.31-13.7-8.39-3.21-0.04-4.93-3.09-7.02-5.04-0.69-0.02-2.06-0.07-2.74-0.1-0.33-0.3-0.98-0.91-1.3-1.22-1.9 1.57-4.24 2.67-5.91 4.51-0.48 3.2-0.47 6.6 0.75 9.67-0.3 0.54-0.92 1.62-1.23 2.17-4.26-0.57-8.97 0.94-12.88-1.22-0.34 0.35-1.02 1.05-1.36 1.4-3.52-1.81-6.98-3.8-9.96-6.42 4.59-3.36 9.39-7.15 12-12.3-1.85-1.77-3.55-3.69-5.47-5.37-1.93-1.97-5.41-0.06-7.15-2.42-0.7 0.45-1.39 0.92-2.07 1.41-0.83-0.03-2.51-0.1-3.35-0.13-1.779-1.91-12.746-0.987-13.75-0.69-2.42-0.25-4.8-0.72-7.17-1.23 2.75-6.9 11.41-8.24 16-13.53 10.964-3.205 20.304-5.941 29.89 0.17z"/>
	<path d="m1174.1 855.58c2.76-0.69 4.6-4.18 7.8-2.9 1.83 0.03 1.63 2.44 2.25 3.69-1.71 2.11-4 4.7-2.18 7.47 20.849-0.782 8.307 35.226 52.18 54.21-0.2 0.34-0.61 1.02-0.81 1.37 1.01 0.62 2.05 1.26 3.09 1.91-1.5 0.17-2.64 0.86-3.43 2.09-1.21-0.43-2.38-0.85-3.56-1.27-1.038 2.381-1.612-0.36-7.38 0.02-3.78-1.43-7.83-1.72-11.78-2.28-0.44-0.45-1.3-1.34-1.74-1.79-1.03 0.33-2.06 0.66-3.06 1.01-1.54-2.11-3.68-3.43-6.36-3.21-0.35-0.44-1.05-1.31-1.4-1.75-8.04-0.22-14.49-5.94-20.19-11-1.4 0.42-2.82 0.79-4.22 1.14-6.707 13.542-3.409 9.783-7.13 13.37l-2.16-1.44c-6.704-0.394-10.389-6.773-12.72-9.31-1.02-3.22-2.38-6.36-2.59-9.76 0.56-0.35 1.67-1.05 2.23-1.4 1.77 0.22 3.71 0.54 5.09-0.94 3.29 0.06 6.65 0.54 9.87-0.51-0.5-0.49-1.51-1.47-2.01-1.97-1.64-0.36-3.25-0.77-4.85-1.24-0.48 0.33-1.45 0.99-1.94 1.32-2.51-0.21-5-0.58-7.46-1.01-1.35-1.1-2.82-2.01-4.41-2.67-0.59-0.92-1.16-1.82-1.72-2.72 1.3-1.57 2.68-3.06 4.17-4.45-0.79-1.14-1.54-2.27-2.27-3.4-0.51-0.05-1.53-0.14-2.04-0.19-0.6-0.44-1.82-1.33-2.42-1.78-2.7 1.47-5.47 2.79-8.29 3.97 0.69-3.25 4.04-4.52 6.31-6.48-1.81-4.88-9.16-7.49-7.8-13.26 0.45-0.14 1.37-0.41 1.82-0.55-0.4-0.71-1.22-2.15-1.62-2.86 3.82 3.27 7.84 6.22 12.16 8.82 1.32-0.1 2.66-0.18 4.01-0.26 3.36-3.54 7.29-6.46 11.4-9.06 2.28 0.35 4.94-0.19 6.76 1.6 2.85-0.66 5.52-1.93 8.4-2.53z"/>
	<path d="m1685.7 867.74s9.421 4.358 27.44 6.47c9.2 1.426 14.16 7.21 21.4-0.13 2.41-0.9 4.62-0.13 6.09 1.99 6.17-0.73 12.37-1.2 18.59-1.58 3.86-1.6 7.83-3.14 11.19-5.7-0.82 4.98-6.57 6.71-10.93 6.38-24.294 5.244-25.44 18.092-37.61 17.99-1.44 1.74-2.67 3.7-4.39 5.17-3.7 2.03-8.84 2.67-11.86-0.87 3.85-2.46 7.26-5.52 10.41-8.82-5.031-3.342-5.718-0.608-16.45-7.35-6.92-1.6-9.45-8.87-13.88-13.55z"/>
	<path d="m1955.7 873.37c9.657-5.633 10.765-3.877 21.34-3.21v9.87c-7.1 3.01-15.75 0.84-22.13 5.74-2.32 3.45-4.54 7.01-7.78 9.68-0.17 2.01 0.15 4.15-0.57 6.08-2.29 2.86-5.89 4.28-9.36 5.09-0.44-0.41-1.31-1.23-1.74-1.64-1.83 0.94-3.66 1.85-5.47 2.76-0.84-0.28-2.51-0.85-3.34-1.14 4.07-5.17 7.64-10.82 8.56-17.47-3.641-0.895-26.388-3.297-49.22-3.04 0.22-0.98 0.45-1.95 0.7-2.91 22.134-1.882 33.149-14.977 52.82-7.67 4.45 1.6 9.21-1.4 10.96-5.54 1.45-0.09 2.93-0.16 4.44-0.19 0.24 1.19 0.5 2.38 0.79 3.59z"/>
	<path d="m1591.2 877.56c0.34-1.7 1.7-2.47 3.32-2.65 0.91 0.98 1.86 1.98 2.82 2.97 1.99 0.34 4.28 0.62 4.88 2.95 6.291 2.713 27.567 10.744 27.58 10.75 0.06 0.38 0.17 1.14 0.23 1.51 2.27-0.01 4.6 0.36 5.29 2.91 0.68 0.1 2.04 0.31 2.72 0.42 0.37 1.1 0.73 2.2 1.12 3.33 1.35 1.2 2.81 2.28 4.35 3.28 9.585-0.242 4.929 0.622 13.47-4.31 0.88 0.55 1.78 1.12 2.71 1.7 0.49 1.23 0.99 2.46 1.52 3.71 7.22-2.1 14.88-1.09 22.16 0.27-1.33 0.66-2.64 1.32-3.97 1.92l-1.8 1.64c-1.04 0.05-2.05 0.11-3.03 0.19-4.854 1.922-6.75 2.564-7.19 4.61-1.01-0.21-2.01-0.41-2.97-0.59-1.62 2.39-4.52 2.77-7.12 2.07-3.724 2.383-5.152 4.055-8.14 5.16-0.16 0.45-0.49 1.36-0.65 1.82-1 0.66-1.94 1.39-2.83 2.17-3.56 1.51-7.55 2.29-10.5 4.93-3.91 0.37-4.26 5.99-8.33 5.35-0.27-0.38-0.82-1.13-1.09-1.51-3.02 0.13-6.08 0.38-8.95-0.77-0.87-1.12-2.2-1.56-3.42-2.05v-1.62c1.864-1.529 11.137-7.9 13.32-8.89 0.36-0.58 1.1-1.74 1.47-2.32-0.29-0.43-0.88-1.31-1.17-1.74-1.71-0.47-3.31-1.19-4.25-2.73-1.01-0.19-1.99-0.35-2.94-0.5-0.54-1.38-1.99-1.8-3.16-2.38-0.17-0.55-0.52-1.66-0.7-2.21-1.24-0.14-2.46-0.25-3.66-0.36 0.05-0.47 0.17-1.4 0.22-1.87-0.51-0.02-1.53-0.08-2.04-0.1-0.05-0.39-0.14-1.18-0.19-1.57-1.46-1.06-2.93-2.1-4.45-3.03-0.34-0.96-0.66-1.9-0.96-2.82-1.41-0.57-2.8-1.15-4.17-1.73-0.46-1.23-0.94-2.44-1.4-3.63-2.16-0.58-4.07-1.76-5.77-3.15-0.25-1.56-0.19-3.49-1.91-4.17-0.25-1.54-0.63-3.1-1.69-4.28 0.36-0.93 0.79-1.82 1.27-2.68z"/>
	<path d="m1683.8 904.21c2.72-2.29 5.4-4.77 8.92-5.8-1.02 4.01-5.02 6.05-8.92 5.8z"/>
	<path d="m741.06 907.2c3.02 0.39 4.17-2.4 6.02-4.09 1.63-0.41 3.33-0.21 5-0.24 0 1.87 0 3.75 0.02 5.65 8.257 4.352 7.567-4.242 35.05 15.28 4.62 3.39 9.69 6.07 14.79 8.67 1.01 2.63 4.08 3.17 6.15 4.71-2.16-0.23-4.23-0.79-6.3-1.36 0.54 0.94 1.09 1.89 1.65 2.86-14.299-3.214-14.781 0.242-21.97-3.48-4.9-0.48-10.2-1.68-13.96-5.03-6.37-0.184-6.662-1.714-11.9-2.32-1.73-0.94-3.58-1.61-5.47-2.11-0.05 0.81-0.14 2.43-0.19 3.25-1.14 0-2.26 0.01-3.37 0.05-1.32 1.37-2.81 2.58-4.53 3.43 0.05 1.23 0.11 2.47 0.17 3.73-0.76 0.88-1.51 1.77-2.25 2.68-5.56 0.41-11.9 2.87-17-0.29 0.971-4 6.402-5.803 7.27-15.48-12.183 4.633-14.995 4.448-16.73 3.06-4.843 4.562-9.565 3.15-17.56 5.95-0.49-0.32-1.47-0.98-1.96-1.31-0.48 0.33-1.45 0.97-1.93 1.3-3.57-1.61-7.55-1.19-11.33-1.06 0.89-0.66 1.78-1.31 2.68-1.95-0.71-0.04-2.12-0.11-2.82-0.14 3.36-1.64 6.55-3.81 10.32-4.39 9.994-2.106 23.231-12.052 29.7-12.9 1.37-1.29 3.04-2.04 4.94-2.06 3.77-1.48 7.93 0.18 11.68-1.41 1.93-0.97 3.92-0.12 5.68 0.77-0.46-0.45-1.38-1.33-1.85-1.77z"/>
	<path d="m647.71 933.31c1.883 0.763 23.149 14.395 28.48 20.43 2.83 3.88 4.47 8.47 7.23 12.4 0.57-1.03 1.13-2.08 1.71-3.09 0.83-0.16 2.48-0.47 3.3-0.63 1.41 1.66 2.49 3.57 3.39 5.57 5.12-4 10.92-7.15 17.38-8.33 3.72 1.07 7.18-1.5 10.95-0.79-2.37 5.41-7.34 10.51-13.59 10.61-4.56 2.7-10.1 3.49-14.3 6.81-2.24 2.7-3.56 6.1-6.21 8.49 1.13 3.15 3.83 5.55 4.27 8.98-5.55 2.09-11.94 1.67-17.53-0.02 0.21-1.56 0.49-3.09 0.91-4.6-0.72-0.25-1.43-0.48-2.13-0.7-1.27 0.68-2.58 1.3-3.92 1.84-2.89-2.62-6.22-4.76-8.66-7.85 4.4-1.66 9.12-1.91 13.69-2.9 0.72-0.8 1.45-1.59 2.19-2.36-4.86-6.55-7.65-14.59-13.63-20.26-1.07-0.95-1.48-2.28-1.81-3.59-4.823-1.886-7.728-6.496-13.47-17.4 0.49-0.01 1.48-0.04 1.98-0.05-0.06-0.64-0.18-1.92-0.23-2.56z"/>
	<path d="m1726.2 950.26c4.95-4.43 5.47-12 11.12-15.83 11.945 11.085-0.772 22.157-1.32 23.16 1.22 0.56 2.47 1.16 3.73 1.77 0.02 1.05 0.07 2.11 0.13 3.18-2.74 1.04-5.6 1.79-8.22 3.1-10.408 12.841-15.335 12.523-25.97 15.42 0.14-0.64 0.43-1.93 0.57-2.57 3.22-4.56 8.14-8.47 8.91-14.31-2.19-1.82-5.18-0.32-7.69-0.3 1.73-7.918 8.001-3.289 14.38-5.65 0.65-3.04 2.01-5.9 4.36-7.97z"/>
	<path d="m819.69 940.07c2.65-0.04 5.53-0.59 7.97 0.81 6.25 0.23 12.51 0.23 18.76 0 2.55-1.482 15.873-1.288 18.25-0.02 1.26 0.06 2.55 0.11 3.84 0.19 2.8 2.53 6.27 4.18 8.99 6.81 1.73 0.08 3.49 0.55 5.23 0.26 2.13-0.84 4.6-3.34 6.91-1.52 1.65 0.85 1.39 2.98 1.89 4.52 4.31-1.55 8.93-0.77 13.31-1.94 9.275 1.968 29.288 12.995 30.29 13.85-0.83-0.01-2.5-0.04-3.33-0.05 0.4 0.55 1.2 1.64 1.6 2.19-0.77-0.04-2.33-0.11-3.11-0.15-6.227 3.055-5.161-0.659-42.76-0.97-1.9 2.05-4.12 3.75-6.44 5.3 0.48 1.25 0.96 2.5 1.47 3.78-0.36 0.48-1.08 1.45-1.43 1.93 0.34 0.24 1.01 0.72 1.35 0.96 2.08-2 5-1.49 7.57-1.03 3.76 0.95 7.68-1.38 11.36 0.22 2.16 1.54 5.15-0.67 7.07 1.31-2.86 1.52-5.82 2.84-8.78 4.15-0.35-0.14-1.05-0.42-1.4-0.57-2.52 3.57-7.69 0.43-10.21 4.02-2.86 0.08-5.73 0.15-8.54 0.74-0.97 0.68-2.01 1.23-3.12 1.64-3.55 3.16-9.23 4.05-10.68 9.16-4.623 1.947-5.659 4.976-17.79-1.55 3.52-3.45 8.62-4.93 11.4-9.18-0.36-0.47-1.06-1.4-1.42-1.87-2.9-0.19-4.76-3.39-7.82-2.56-2.9-1.09-5.04-3.32-7.27-5.35-9.848-4.415-22.599-20.248-12.77-18.61 6.92 6.1 16.66 6.94 24.96 10.3 5.779-1.462 10.085-2.737 13.46-5.25-1.69-0.8-3.36-1.57-5-2.41-2.183-0.357-1.252 0.053-5.97-2.02l-2-0.24c-7.785-4.065-16.6-7.96-16.6-7.96-0.58-0.02-1.75-0.06-2.33-0.08-3.3-1.4-6.93-1.9-10.06-3.67-3.23 0.13-6.08-1.16-8.53-3.14 1.74-0.15 3.54-0.22 5.31-0.35-1.23-0.55-2.44-1.1-3.63-1.65z"/>
	<path d="m107.87 940.67c1.12 0.54 2.24 1.09 3.37 1.65-0.19 2.31-1.21 4.67-0.81 6.99 1.68 1.55 4.03 1.84 6.14 2.45 27.045 6.989 30.119 13.248 45.48 17.29 1 0.62 3.79 0.92 2.62 2.6-1.001 0.159-16.902 1.238-19.7 0.55-0.44 0.12-1.31 0.36-1.75 0.47-5.44-0.957-6.072-0.544-13.34-2.57-0.88 0.21-1.76 0.43-2.64 0.67-7.61-1.57-15.37-2.41-22.78-4.8-0.97 1.04-1.94 2.1-2.91 3.18 1.76 3.51 3.66 6.97 4.99 10.68-19.198 3.576-17.19 2.736-17.54-2.64-1.65 0.77-3.44 0.77-5.08-0.03-2.06 2.04-4.74 2.06-7.14 0.63-1.54-3.58-6.54-4.05-7.87-7.41 8.175-4.646 14.193-0.975 19.5-9.13-10.88-0.99-21.23-4.58-31.37-8.45v-10.75c9.48 1.13 19.12 0.6 28.49 2.65 21.904 5.206 16.386-1.531 22.34-4.03z"/>
	<path d="m1548.9 948.49l2.43-0.19c0.28 0.54 0.85 1.62 1.13 2.16l-0.28-2.58c3.53 0.81 5.18 4.44 8.32 6 0.15 0.47 0.46 1.42 0.61 1.9 0.55 0.3 1.65 0.89 2.2 1.19 0.84-0.2 2.52-0.61 3.36-0.81l-0.24 1.24c3.94 1.51 8.33 2.05 11.98 4.23 7.01 0.427 15.218 3.981 20.26 4.98l-0.18 0.83c2.654 0.358 11.151 4.801 13.39 6.11 0.63-0.02 1.9-0.05 2.53-0.07 0.53 2.04 1.37 1.53 2.24-0.05 0.34 0.02 1 0.06 1.33 0.08 1.67-3.33 5.63-3.22 8.82-3.16 1.18 1.42 1.97 3.06 1.88 4.97-0.89 1.25-1.74 2.55-2.56 3.86 5.474 0.437 22.918 4.604 26.2 9.77 1.13-0.3 2.26-0.59 3.44-0.85-0.24 0.45-0.72 1.34-0.96 1.79 12.41 6.57 19.117 7.554 25.27 7.32-2.45 0.86-4.9 1.72-7.45 2.1-1.51 1.23-3.71 3.2-5.7 1.83-2.262-1.64-1.484-0.888-23.1-0.59-0.66-0.85-1.35-1.65-2.06-2.41-1.77-0.22-3.36 1.02-4.97 1.5-0.47-0.4-1.41-1.21-1.89-1.61-0.85 0.19-2.55 0.56-3.4 0.74-0.09-0.44-0.26-1.32-0.35-1.76-1.27 0.25-2.51 0.51-3.74 0.76-0.02-0.41-0.06-1.24-0.07-1.66-3.49 1.27-5.93-2.88-9.37-1.9-2.24 0.31-4.2 1.55-6.24 2.41-0.38 0.4-1.13 1.22-1.51 1.62 0.16 1.41 0.48 2.93-0.44 4.21-0.07 0.54-0.21 1.63-0.28 2.17-2.41 2.84-5.8 4.57-9.58 3.77-2.48-2.74-6.48-0.5-9.49-2.29-3.51-1.69-5.45-5.48-9.09-6.79 0.13-0.81 0.29-1.61 0.46-2.4 5.681-2.145 13.058-4.743 17.53-9.37l-2.88 0.2 0.15-1.1c-3.21-0.63-5.92-2.56-9.03-3.39-0.16-0.56-0.48-1.69-0.64-2.25-0.78 0.14-2.35 0.41-3.13 0.54-0.21-0.59-0.64-1.77-0.85-2.36-2.39 0.81-3.99-1.22-5.66-2.48-3.97-3.288-3.635 0.102-11.46-8.42-4.17-1.74-8.16-4.98-10.22-9.04-1.37-1.34-4.95-2.92-2.55-5.06-1.79-0.58-3.24-1.74-4.07-3.41l2 0.3c-0.52-0.65-1.57-1.94-2.09-2.58z"/>
	<path d="m1858.5 966c1.31 0.02 2.64 0.07 4.01 0.14 0.71 1.14 1.46 2.27 2.24 3.42-2.06 1.11-3 3.25-3.98 5.24 1 0.41 27.087 8.949 42.91 27.51l-2.5-1.23-0.46 1.12c-2.53-0.24-5.19-0.17-7.19-1.98-1.86-0.27-3.68-0.54-5.48-0.85-1.02 1.67-1.83 3.45-2.35 5.34 17.807 12.503 5.292-1.419 22.12 35.8 0.26 1.63 0.57 3.28 0.87 4.93-1.28-1.29-2.52-2.62-3.79-3.88 0.19 0.69 0.56 2.06 0.74 2.75l-0.91 0.16c-0.946-1.001-18.778-13.438-24.28-23.32-0.47-0.06-1.4-0.19-1.87-0.26-1.96-1.48-3.93-3.18-6.34-3.75-3.99 1.24-7.64 3.34-10.27 6.62-3.63 2.12-6.64 5.65-10.86 6.51-0.07-1.78-0.09-3.54-0.09-5.29-1.38-1.11-2.72-2.24-4.04-3.36 0.33-0.33 0.98-0.98 1.3-1.31 13.402-5.329 4.869-12.091 32.4-21.72-4.42-3.512-30.825-9.921-32.31-9.16-3.14 1.69-6.19 3.96-9.95 3.72-1.58 1.52-3.01 3.24-4.83 4.46-3.865 1.968-14.273-1.56-15.87-2.6-0.84-1.65 1.85-2.07 2.83-2.63 5.34-2.29 11.51-4.65 14.23-10.21-6.07-0.65-12.1-2.08-17.21-5.53-6.48-1.38-12.16-4.78-18.16-7.4 0.16-0.74 0.34-1.47 0.54-2.18 4.82-0.49 9.47 1.17 14.28 1.25 10.27 0.5 20.95-2 30.93 1.43 2.9 0.47 5.9 0.46 8.86 0.25 1.79-0.92 3.03-2.63 4.48-3.99z"/>
	<path d="m910.77 976.11c0.05-3.13 2.82-4.46 5.43-5.13-0.28 2.93-3.13 4.02-5.43 5.13z"/>
	<path d="m1126.6 977.94c33.577 2.045 22.045 14.07 32.55 19.93 0.31 0 0.93 0.01 1.24 0.02 1.92-2.19 4.07-4.14 6.27-6.03 1.02 0.14 2.08 0.32 3.13 0.51 5.66-6.97 16.21-9.77 24.02-4.66-1.06 1.62-2.09 3.35-1.41 5.35-1.13 4.05-5.54 2.56-8.58 3.62-7.976 4.84-5.157 2.223-13.78 5.42 1.52 5.44-4.2 8.71-4.31 13.82-2.668 2.911-4.767 7.667-9.41 8.17-0.17-0.5-0.52-1.5-0.69-2-0.44 0.34-1.31 1.02-1.74 1.36-1.26-0.18-2.51-0.33-3.74-0.46-0.95 3.15-2.14 6.35-5.01 8.27-0.69-0.13-2.07-0.4-2.76-0.53-0.29-0.46-0.87-1.38-1.16-1.85 0.08 0.67 0.24 2.01 0.33 2.68 0.44 0.33 1.33 1 1.77 1.33-0.43 2.14-0.97 4.26-1.52 6.39 4.13 0.45 8.38-3.05 12.27-0.45 9.337 6.587 8.614 32.38 3.95 41.78-0.33-0.76-0.98-2.27-1.31-3.03-3.881-2.273-6.658-13.023-6.98-15.45-1.43-2.51-2.93-5.01-5.05-6.98-3.1-0.29-6.11-1.15-9.22-1.28-1.93 2.07-3.9 4.13-5.39 6.56 0.85 1.28 1 2.81 1.2 4.33 2.01 0.04 4.02 0.1 6.04 0.26 2.32 1.3 5.39 0.68 7.29 2.9 0.37-0.09 1.09-0.28 1.45-0.37 8.075 3.311 7.296 13.277 15.36 16.7 2.03-1.64 4.05-3.29 5.76-5.27 0.74-0.02 2.22-0.07 2.96-0.1 0.6 1.03 1.21 2.07 1.85 3.13-0.33 1.21-0.66 2.44-0.98 3.68 14.153-10.229 23.41 0.323 19.96 17.74l-1.65-1.29c-0.56 1.01-1.1 2.04-1.63 3.08-2.78-1.1-6.24-1.96-7.25-5.16-4.07-2.2-8.99-0.02-13.13-2.19-5.996 9.15-6.083 6.758-11.93 10.51-1.86 3.56-3.17 7.4-5.53 10.69-2.19-0.04-4.37-0.06-6.54-0.05-0.41-0.49-1.23-1.47-1.65-1.95-3.668-0.45-1.076-0.159-5.43-1.36-1.37-1.56-3.72-2.58-4.28-4.61 2.97-5.59 10.86-6.22 13.55-12.23-2.05-13.527-21.359-20.748-23.04-22.79-5.16 0.32-10.38-0.54-14.95-3.02 0.57-0.38 1.69-1.12 2.25-1.5-3.25-1.02-0.84-2.88 0.45-4.37-1.21-0.47-3.48 0.1-3.25-1.83 4.6-4.15 10.46-7.46 12.95-13.45-2.59-0.63-5.15-1.52-7.79-1.75-5.074 1.978-10.38 7.691-23.07 19.05 0.5-1.62 1.08-3.2 1.75-4.74 0.04-0.55 0.11-1.65 0.15-2.21 0.45-0.38 1.35-1.16 1.8-1.54 1.031-4.153 16.858-27.741 26.94-28.92 1.41 1.98 3.65 2.99 5.77 4.08 3.06-0.11 6.14-0.09 9.22 0 0.75-2.23 2.35-3.88 4.4-4.97-1.29-0.6-2.56-1.2-3.82-1.8 2.36-3.03 6.38-4.26 8.27-7.69 3.832-6.546 8.988-5.415-4.21-20.65-2.702-3.19-17.869-12.648-18.87-13.64-0.49-0.02-1.49-0.08-1.99-0.11-2.16-1.07-3.94-2.69-4.81-4.97-1.7-0.01-3.41 0-5.08 0 1.503-5.507 14.81-6.288 18.04-4.11z"/>
	<path d="m1784.1 1008c2.3-1.92 4.42-4.71 7.83-3.94 0.15 2.19 0.28 4.47-1.01 6.4 26.702 15.438 16.332 14.405 28.47 23.27 0.025-7.997-2.623-8.822 5.32-11.59 2.08 2.07 4.35 3.99 7.09 5.17 2.38 4.32 4.52 9.06 4.23 14.13-1.61 1.65-3.11 3.55-3.12 5.98 2.93 1.37 6.23 3.44 6.23 7.11-37.725 2.892-5.656-0.26-38.2-0.95-3.37-0.56-0.92-4.92 1.15-5.46 4.54-0.46 9.13 0.54 13.7-0.04 0.51-2.48 1.18-4.92 1.96-7.33-1.04-0.88-2.08-1.73-3.11-2.55-1.94-0.11-3.72-0.84-5.22-2.01-0.57-0.05-1.7-0.14-2.27-0.18-0.83-0.63-1.63-1.24-2.42-1.84-0.54-0.04-1.64-0.13-2.18-0.18-1.76-1.2-3.5-2.42-5.08-3.8-0.51-0.08-1.51-0.23-2.01-0.3-1.001-0.662-11.056-6.855-13.82-6.87-1.76 0.91-3.62 1.57-5.39 2.4-1.67 1.69-2.89 3.77-4.46 5.56-15.174 3.991-3.941-3.266-26.06 5.98 26.82-28.43 31.414-29.172 38.37-28.96z"/>
	<path d="m1961.6 1026.7c5.47 0.9 10.55-1.58 15.46-3.61v8.08c-4.41 3.49-9.15 6.52-13.56 9.99-0.14-1.84-0.24-3.67-0.3-5.49-2.38 1.82-4.63 4.12-7.76 4.4-1.03-5.36 2.22-10.11 6.16-13.37z"/>
	<path d="m933.79 1031c3.52-0.7 6.76 1.22 10.26 1.03 7.131-1.032 8.918 9.67 18.31 10.08 1.17-1.12 2.76-1.21 4.28-1.37 3.21-2.57 6.91-4.44 10.29-6.77 2.64-0.23 5.31 0.05 7.98 0.02 7.37 7.846 9.555 20.22 5.16 20.42 0 0.78 0 2.34-0.01 3.12-2.31-0.43-3.3-2.44-3.31-4.61-5.12 0.84-10-1.64-15.11-0.84-1.292 2.445-5.975 8.478-14.37 12.11-0.07 0.62-0.2 1.87-0.27 2.5-2.09 3.94-6.67 7.03-11.08 4.56-1.94 0.6-3.96 0.89-5.98 1.02 0.04-1.74 0.11-3.47 0.2-5.18-1.58-0.02-3.15-0.05-4.71-0.07 5.167-5.095 5.446-0.723 11.48-9.85-3.83-2.91-8.47-4.38-12.44-7-0.59-0.04-1.76-0.13-2.35-0.17-0.36-0.29-1.07-0.89-1.42-1.18-15.977 0.604-8.87-0.029-24.74-0.96 0.32-0.96 0.65-1.91 1-2.84-3.28 1.51-6.72 2.74-10.32 3.24 0.8-1 1.63-1.95 2.47-2.9-1.34-0.33-2.98-0.27-3.51-1.79 6.153-1.683 7.405-6.204 27.01-9.85 3.57-1.59 7.71-1.14 11.18-2.72z"/>
	<path d="m371.08 1039.9c1.52 0.33 3.11 1.3 4.66 0.48-1.56 5.43 5.23 6.82 9.16 7.53 7.86 6.756 17.41 24.549 18.94 36.07-1.11-0.17-2.22-0.34-3.33-0.49-2.04-2.18-4.36-4.08-6.97-5.54-0.61-1.125-12.721-12.707-17.05-14.77-0.27 0.22-0.81 0.64-1.08 0.85-0.91-0.63-1.81-1.24-2.71-1.84-0.17-0.57-0.51-1.72-0.68-2.29-1.56-0.7-3.62-2.14-3.78 0.62-0.32-0.02-0.98-0.06-1.31-0.08-1.07 3.04-2.3 6.03-3.52 9.02-1.04 0.31-2.08 0.64-3.12 0.98-1.49 0.01-2.98 0.03-4.47 0.05-2.32-2.72-6.58-1.91-9.72-3.11 0.67-3.85 3.68-6.46 6.8-8.44 0.81-1.3 1.63-2.58 2.45-3.85l-1.92 1.28c-1.81 0.15-3.61 0.43-5.31 1.1l-0.17-1.5c-4.61 0.98-8.64 3.49-13.03 5.09 18.836-21.952 20.885-15.589 33.91-17.96 0.74-1.08 1.49-2.14 2.25-3.2z"/>
	<path d="m478.77 1053.7c4.98 1.039 6.03 3.454 16.31 6.64 2.03 0.339 8.671 2.068 10.35 3.25 1.41 0.13 2.92 0.16 4.07 1.16 0.64-0.04 1.91-0.11 2.55-0.15 2.04 0.94 4.2 1.65 6.43 2.07l0.09 0.69c8.55 1.82 14.83 10.32 24.09 9.29 1.32-1.87 2.68-3.71 4.14-5.45 1.44 0.61 2.89 1.26 4.32 1.95-0.04 1.25-0.08 2.52-0.11 3.81l2.12 0.6c12.52-6.6 25.81-11.85 39.66-14.82 3.25-2.31 5.77-5.49 9.17-7.6-4.44 9.801-34.533 29.146-46.11 36.12-0.63-0.08-1.88-0.25-2.5-0.33-2.85 3.65-5.62 7.34-9.01 10.55v2.6c-1.87 1.26-1 3.52-0.87 5.37-1.89 1.59-4.06 2.8-6.28 3.86-4.43-0.31-9.39 0.61-12.95-2.69-3.256-1.13 1.823-4.557 6.67-12.61-0.08-0.82-0.24-2.47-0.32-3.3 0.43-0.31 1.28-0.94 1.7-1.25-5.92-1.75-11.53-4.12-16.81-7.32-0.48-0.07-1.44-0.21-1.91-0.28-6.27-4.5-13.01-8.68-18.03-14.57-0.727-0.474-16.157-14.03-17.91-16.17l2.32 0.77c-0.3-0.55-0.89-1.65-1.18-2.19z"/>
	<path d="m116.15 1062c0.91 0.41 1.83 0.83 2.74 1.27 0.33 1.98 0.71 3.98 1.18 5.96 17.256-5.689 15.451-12.731 33.83 13.13 0.89 1.77 1.33 3.68 1.08 5.68-0.78-0.59-2.34-1.79-3.12-2.39 0.37 3.63 1.72 7.28 1.02 10.96-0.4 0.27-1.2 0.82-1.6 1.1l-0.16-1.83c-0.83 0.59-1.73 0.99-2.7 1.2-1.75-1.75-1.72-4.4-2.99-6.39-8.356-4.209-30.005-19.946-30.34 9.12-5.02 4.02-12.28 2.1-17.74 0-3.69-2.33 0.71-5.26 2.48-7.13 1.37-3 2.75-6.1 2.32-9.48-6.386-1.846-12.165-4.914-27.3 5.71-1.84 1.99-3.27 4.34-5.23 6.25-0.62-0.36-1.25-0.7-1.87-1.03-0.74 0.31-2.23 0.93-2.97 1.24 1-3.97 2.97-7.58 4.32-11.41-1.17 0.79-2.33 1.59-3.49 2.41 0.11-0.74 0.35-2.21 0.46-2.95 36.723-37.911 30.33-11.859 45.58-15.45 0.85-2.45 2.18-4.68 4.5-5.97z"/>
	<path d="m725.29 1076.7c2.71 3.11 4.25 7.04 7.07 10.07 1.2-0.11 2.4-0.23 3.62-0.38 2.39-0.4 3.91-3.47 6.52-2.87 1.8-0.52 3.33 0.5 4.06 2.16 2.16 0.21 4.44 0.48 6.48-0.5 8.547 3.456 5.464 12.363 6.52 16.95-0.24 0.31-0.73 0.93-0.97 1.25-0.51 2.45-1.03 4.91-1.4 7.41-5.551-0.655-5.727-5.644-17.85-9.89-5.785 7.585-11.043 6.762-13.84 10.7-1.49 1.85-2.75 3.95-4.69 5.38-4.82 0.72-11.51-0.06-13.33-5.42 5.19-2.59 9.41-6.85 12.48-11.74-5.258-13.233-26.334-3.263-33.43-4.58 6.981-10.577 25.561-23.341 38.76-18.54z"/>
	<path d="m1793.7 1108.7c2.06 1.8 4.22 3.77 5.24 6.4 0.22 2.53 0 5.08 0.01 7.64 2.14 0.23 4.49 0.37 6.04 2.14-8.702 10.438-22.909 7.678-23.91 7.8-3.37 1.41-7 4.33-10.61 1.77 0.18-0.8 0.54-2.4 0.72-3.21 2.67-3.25 6.74-4.11 10.76-3.28 1.41-7.46 5.08-15.21 11.75-19.26z"/>
	<path d="m1016.7 1113.4c1.99-1.97 4.52-3.14 7.38-2.76 0.36 1.1 0.73 2.21 1.11 3.33-0.44 1.25-0.68 2.57-0.49 3.91 10.956-0.212 9.678-0.234 27.94 23.33 8.433 11.408 5.314 9.167 3.16 11.57-1.16-0.22-2.34-0.41-3.48-0.54-24.941-18.868-24.277-19.443-31.87-21.55-0.6-0.64-1.18-1.26-1.75-1.87-3.782 4.774-4.534 2.155-14.05 10-4.42 0.69-9 2.66-13.42 1.45-2.09 2.62-3.57 5.99-6.9 7.28-0.67 3.51-3.65 5.74-6.26 7.83 1.392-5.231 16.962-25.556 20.2-30.29 4.45-6.11 11.87-8.6 18.43-11.69m-19.3 17.77c-1.37 2.46-2.99 4.77-4.52 7.14 2.98-2.6 5.65-5.52 8.45-8.3-1.32 0.37-2.62 0.77-3.93 1.16z"/>
	<path d="m1340.3 1110.5c0.9 1.52 1.68 3.1 2.37 4.76-0.81 0.96-1.38 2.07-1.75 3.27 1.73 0.87 3.4 1.91 4.66 3.45 0.36-0.12 1.09-0.36 1.45-0.48 8.186 3.821 14.64 13.623 16.29 18.99 0.802 1.003 13.899 21.638 14.08 23.92-0.84-0.64-2.51-1.94-3.35-2.59 0.39 1.26 1.16 3.77 1.55 5.03-0.465-0.053-41.242-32.309-41.61-32.6-1.55 1.01-3.07 2.03-4.61 3.03-0.92 2.89-0.99 6.06-2.25 8.82-1.29 2.25-3.66-0.74-5.52 0.41-3.557 1.551-5.781-0.486-10.21-2.41l-1.36 0.64c-1.38-1.86-2.74-3.73-4.26-5.45 1.487-3.94 5.329-3.071 12.51-9.77-1.65-0.5-3.26-0.96-4.89-1.39-5.1 1-10.18 1.96-14.92 4.21-5.34 2.87-11.43 3.2-17.1 4.94 0.06-0.82 0.18-2.47 0.25-3.29 12.976-3.893 28.259-19.151 37.28-20.22 5.853 4.81 18.321-3.163 21.39-3.27z"/>
	<path d="m1531.7 1115.6c0.88-0.01 2.62-0.03 3.49-0.04 0.49 0.37 1.49 1.12 1.98 1.5 0.39 0.96 0.8 1.93 1.23 2.91-1.01 1.69-1.08 3.64-1.04 5.57 2.49 2.25 4.74 4.84 7.77 6.43 0.98 1.05 1.96 2.11 2.97 3.18 2.478 4.626 10.373 21.91 10.21 26.56 1.96 1.73 3.26 4.02 3.84 6.58 0.48 0.13 1.44 0.38 1.92 0.5 0.57 1.48 0.76 3.39 2.53 3.97 0.01 0.49 0.04 1.47 0.06 1.95-1.02-0.04-2.02-0.07-2.99-0.08-0.36-2.19-1.99-3.57-3.98-4.26-0.96-2.12-1.79-4.27-2.43-6.49 0.17 1.7 0.32 3.42 0.46 5.16-3.06-0.9-4.79-3.87-7.77-4.83-1.99-3.38-5.05-5.85-8.38-7.8-4.46-2.04-6.62-6.62-9.86-9.98-2.19-2.4-5.15-3.85-7.39-6.16-2.9-0.09-5.08 2.93-7.97 2.04-1.73 2.34-3.82 4.72-6.9 5.08 0.04-0.55 0.13-1.64 0.17-2.19-0.74 2.39-3.48 1.17-5.25 1.46 0.16 0.41 0.49 1.22 0.65 1.63-1.03 0.01-3.08 0.03-4.11 0.04-2.28-1.76-4.32-3.81-5.7-6.33 4.99-2.92 10.04-5.71 14.91-8.82-7.988 0.599 2.068-1.441-20.28 7.25-1.2-0.44-2.39-0.85-3.56-1.24-0.07-0.39-0.21-1.17-0.29-1.57 1.42 0.02 2.86 0.05 4.31 0.1 40.195-27.488 23.261-14.675 35.16-18.05 1.22-0.84 2.72 0.6 2.22 1.85l0.02 0.52c1.83-0.41 0.97-2.7 1.19-3.98 0.9-0.85 1.86-1.66 2.81-2.46z"/>
	<path d="m57.04 1122.8c5.34 0.43 10.53 1.83 15.53 3.71 2.29 3.6 4.53 7.23 7.04 10.69 8.405-2.134 3.468-4.835 12.21-3.19 1.7-0.74 3.36-1.69 5.2-2 2.63 0.63 3.44 3.71 3.93 6.03 0.87 3.78-1.85 6.89-3.52 9.99-3.48 0.33-5.82-3.41-9.13-2.98-7.387 8.058 1.124 2.8-13.99 11.39-4.035 2.84-5.594 9.18-17.27 5.5v-39.14z"/>
	<path d="m1097 1132.4c0.91-0.44 1.82-0.88 2.74-1.3 1.58 1.46 3.15 2.95 4.65 4.53 1 0.57 17.026 9.936 18.09 11.02 6.21 2.1 11.56 6.28 16.03 11.02 33.775-10.115 26.487 5.114 36.48 6.01 14.395-4.885 17.167-12.646 22.6 2.71 1.53-1.36 3.09-2.69 4.71-3.95 0.218 2.577-0.694 1.297-9.21 11.13-0.42-0.44-1.28-1.32-1.71-1.76-1.47 0.23-2.79-0.29-4.07-0.85-0.44 0.53-1.32 1.59-1.76 2.12-0.53 0.03-1.58 0.08-2.1 0.11-4.03 2.99-7.62 6.54-12.08 8.94-1.513 5.369-1.262 11.612-10.88 2.5-1.55 0.5-3.08 1.03-4.59 1.58-1.02-0.1-3.06-0.31-4.08-0.41 1.49-1.92 3.35-3.49 5.35-4.85-1.27 0.45-2.52 0.92-3.75 1.39-1.51 2.14-2.99 4.56-5.55 5.53-4.96 1.52-5.28 7.42-7.78 11.18-3.38-0.17-6.76-0.21-10.13 0-1.11-1.16-2.02-2.5-2.64-3.95-1.06-0.02-2.1-0.01-3.13 0.02-1-1.37-2.1-2.67-2.71-4.24 3.07-2.56 6.74-4.3 10.24-6.2 1.28-1.96 2.49-3.96 3.46-6.09-5.72-5.61-11.4-11.24-16.14-17.72-6.88-4.62-10.68-12.35-16.03-18.47 0.18-0.31 0.53-0.92 0.7-1.22-2.57-2.63-6.24-4.82-6.71-8.78z"/>
	<path d="m878.34 1155.8c1.47-0.01 2.85 0.61 4.28 0.97-0.25 3.24-0.82 6.44-1.4 9.64 4.78 1.47 8.88 5.54 14.07 5.25 0.47 0.35 1.41 1.06 1.89 1.41-0.37 0.48-1.11 1.44-1.47 1.92 1.8 2.2 3.16 5.19 6.11 6.06 9.694 2.944 14.344 13.931 27.22 26.93h-7.65c-3.33-1.93-6.65-3.93-10.31-5.17 0.72 0.65 1.46 1.32 2.22 1.99 0.27 1.05 0.58 2.11 0.9 3.18h-12.67s-9.392-7.826-15.6-13.25c-4.602 2.637-6.481 13.736-20.65 9.26 2.98-4.72 7.58-8.52 8.74-14.23-8.396 1.978-6.988 2.556-7.78 8.29-4.66 4.28-11.04 2.75-16.64 2.01-3.5 2.01-7.19 3.77-11.16 4.63 1.24-3.8 5.15-5.07 8.34-6.75-0.99-1.22-1.98-2.42-2.95-3.61 2.07-2.51 4.95-4.05 7.42-6.08 1.86-2.3 3.33-4.91 5.61-6.84l-0.04-1.92c-13.397 2.754-12.424 4.884-25.82 12.65 0.06-0.72 0.19-2.16 0.25-2.88 12.178-8.509 17.625-25.875 32.42-25.68 2.78-0.96 5.65-1.67 8.38-2.79 2.48-1.14 3.86-3.77 6.29-4.99z"/>
</svg>
