<?xml version="1.0" encoding="iso-8859-1"?>
<!-- Generator: Adobe Illustrator 19.0.0, SVG Export Plug-In . SVG Version: 6.00 Build 0)  -->
<svg version="1.1" id="Layer_1" xmlns="http://www.w3.org/2000/svg" xmlns:xlink="http://www.w3.org/1999/xlink" x="0px" y="0px"
	 viewBox="0 0 512 512" style="enable-background:new 0 0 512 512;" xml:space="preserve">
<g>
	<g>
		<g>
			<path d="M502.025,76.385L306.731,262.778L504.09,433.112c4.958-7.159,7.91-15.821,7.91-25.173V104.058
				C512,93.537,508.169,83.997,502.025,76.385z"/>
			<path d="M223.684,256.925l6.801,6.323c14.319,13.329,36.727,13.32,51.021,0.009L488.849,65.36
				c-6.315-3.473-13.466-5.623-21.171-5.623H44.322c-9.199,0-17.749,2.825-24.841,7.637l204.16,189.525
				C223.65,256.908,223.667,256.916,223.684,256.925z"/>
			<path d="M7.467,79.501C2.765,86.541,0,94.981,0,104.06v303.88c0,8.823,2.662,17.007,7.117,23.919l197.922-168.951L7.467,79.501z"
				/>
			<path d="M293.284,275.615l-0.068,0.06l-0.009,0.009l-0.077,0.068c-13.013,12.117-30.643,16.666-47.13,13.619
				c-1.084-0.196-2.116-0.632-3.191-0.896c-2.176-0.538-4.378-1.015-6.485-1.826c-3.132-1.203-6.17-2.705-9.071-4.506
				c-0.026-0.017-0.051-0.026-0.077-0.034c-2.927-1.818-5.709-3.942-8.32-6.366l-1.229-1.143L18.963,444.191
				c7.194,5.052,15.915,8.073,25.361,8.073h423.347c8.909,0,17.169-2.688,24.124-7.228L294.342,274.634L293.284,275.615z"/>
		</g>
	</g>
</g>
<g>
</g>
<g>
</g>
<g>
</g>
<g>
</g>
<g>
</g>
<g>
</g>
<g>
</g>
<g>
</g>
<g>
</g>
<g>
</g>
<g>
</g>
<g>
</g>
<g>
</g>
<g>
</g>
<g>
</g>
</svg>
