<?xml version="1.0" encoding="UTF-8" standalone="no"?>
<!-- Created with Inkscape (http://www.inkscape.org/) -->

<svg
   xmlns:dc="http://purl.org/dc/elements/1.1/"
   xmlns:cc="http://creativecommons.org/ns#"
   xmlns:rdf="http://www.w3.org/1999/02/22-rdf-syntax-ns#"
   xmlns:svg="http://www.w3.org/2000/svg"
   xmlns="http://www.w3.org/2000/svg"
   xmlns:xlink="http://www.w3.org/1999/xlink"
   xmlns:sodipodi="http://sodipodi.sourceforge.net/DTD/sodipodi-0.dtd"
   xmlns:inkscape="http://www.inkscape.org/namespaces/inkscape"
   version="1.1"
   id="svg5634"
   width="626"
   height="626"
   viewBox="0 0 626 626"
   sodipodi:docname="posible fondo3.jpg.svg"
   inkscape:version="0.92.4 (f8dce91, 2019-08-02)">
  <metadata
     id="metadata5640">
    <rdf:RDF>
      <cc:Work
         rdf:about="">
        <dc:format>image/svg+xml</dc:format>
        <dc:type
           rdf:resource="http://purl.org/dc/dcmitype/StillImage" />
        <dc:title></dc:title>
      </cc:Work>
    </rdf:RDF>
  </metadata>
  <defs
     id="defs5638">
    <filter
       inkscape:label="Fluorescence"
       inkscape:menu="Color"
       inkscape:menu-tooltip="Oversaturate colors which can be fluorescent in real world"
       style="color-interpolation-filters:sRGB;"
       id="filter6203">
      <feColorMatrix
         type="hueRotate"
         values="0"
         id="feColorMatrix6197" />
      <feColorMatrix
         type="saturate"
         values="1"
         id="feColorMatrix6199" />
      <feColorMatrix
         type="matrix"
         values="2 -1 0 0 0 0 2 -1 0 0 -1 0 2 0 0 0 0 0 1 0 "
         id="feColorMatrix6201" />
    </filter>
  </defs>
  <sodipodi:namedview
     pagecolor="#ffffff"
     bordercolor="#666666"
     borderopacity="1"
     objecttolerance="10"
     gridtolerance="10"
     guidetolerance="10"
     inkscape:pageopacity="0"
     inkscape:pageshadow="2"
     inkscape:window-width="1299"
     inkscape:window-height="713"
     id="namedview5636"
     showgrid="false"
     inkscape:zoom="0.53315399"
     inkscape:cx="238.72881"
     inkscape:cy="313"
     inkscape:window-x="67"
     inkscape:window-y="27"
     inkscape:window-maximized="1"
     inkscape:current-layer="svg5634" />
  <image
     sodipodi:absref="/home/andres/Descargas/advanced-css-course-master/Natours/Portfolio/img/posible fondo.jpg"
     xlink:href="posible fondo.jpg"
     y="0"
     x="0"
     id="image5642"
     preserveAspectRatio="none"
     height="626"
     width="626" />
  <path
     style="fill:#241f1c;fill-opacity:1;stroke:none;stroke-width:0.79576272;stroke-linecap:round;stroke-linejoin:round;stroke-miterlimit:4;stroke-dasharray:none;stroke-opacity:1"
     d="M 0,313.26525 V 1.5915254 H 313 626 V 313.26525 624.93898 H 313 0 Z m 406.34819,257.46319 c 41.67309,-7.44478 47.70261,-15.26312 18.02838,-23.37693 -56.08162,-15.33435 -220.66097,-10.55306 -238.13215,6.91812 -2.11569,2.1157 -3.08532,5.07866 -2.15473,6.58441 2.34082,3.78754 36.03271,10.97274 64.28248,13.70903 34.80057,3.37079 130.66873,1.04374 157.97602,-3.83463 z m -45.22972,-72.04541 c 26.78463,-15.46153 50.17618,-29.32197 51.98124,-30.80097 1.80503,-1.47904 4.89739,-2.0692 6.87189,-1.31153 1.9745,0.7577 5.27222,0.31268 7.32825,-0.98889 2.64565,-1.67482 2.76915,-2.37838 0.42261,-2.40713 -1.82363,-0.0212 -3.31568,-1.07399 -3.31568,-2.337 0,-1.28863 4.94707,-1.3021 11.2733,-0.0308 6.20032,1.24611 15.95428,3.01106 21.67547,3.92211 5.72119,0.91104 16.46398,3.69743 23.87288,6.19196 10.17743,3.42671 15.90255,3.93756 23.41776,2.08959 9.72302,-2.39087 13.24082,-8.10543 6.63135,-10.7724 -1.82362,-0.73584 0.20557,-1.43213 4.50932,-1.54731 5.78329,-0.15464 7.04858,-0.98584 4.84922,-3.18519 -1.63667,-1.63668 -2.3597,-4.58116 -1.60675,-6.54332 1.04643,-2.72692 5.21652,-1.62495 17.69737,4.67664 20.3216,10.26038 42.92959,12.5634 45.01582,4.58564 0.72608,-2.77647 0.23825,-5.04819 -1.08407,-5.04819 -1.32232,0 -2.40421,-0.99001 -2.40421,-2.20002 0,-1.21001 2.55243,-2.10524 5.67209,-1.9894 8.05519,0.2991 8.23407,-6.89486 0.45613,-18.34114 -5.94703,-8.75185 -6.33104,-12.85157 -1.26524,-13.50786 0.97261,-0.126 3.83996,-1.14229 6.37191,-2.25846 4.19627,-1.84983 4.07892,-2.4671 -1.32627,-6.97714 -6.61557,-5.51996 -4.6329,-6.60491 4.1916,-2.29373 4.94752,2.4171 4.82519,2.03827 -0.83751,-2.59355 -3.64725,-2.98326 -7.825,-5.46896 -9.2839,-5.52373 -1.4589,-0.0549 -0.99133,-1.15155 1.03905,-2.43727 3.03592,-1.92245 2.6505,-3.79974 -2.17004,-10.56953 -6.26374,-8.79665 -5.66249,-9.92491 2.85883,-5.36445 2.94684,1.5771 5.95193,2.27339 6.67801,1.54731 1.99811,-1.99811 -4.75386,-9.45225 -36.47877,-40.27244 -11.38659,-11.06187 -16.23207,-17.43699 -13.92584,-18.32198 1.94529,-0.74648 5.37182,-0.65311 7.61452,0.20743 2.24267,0.86059 6.29597,-0.4429 9.00731,-2.89663 4.63676,-4.19622 4.67975,-5.09776 0.7233,-15.16989 -2.31355,-5.88971 -7.40343,-14.13097 -11.31086,-18.3139 -3.90747,-4.18292 -6.63218,-8.07757 -6.05499,-8.65479 1.59964,-1.59964 -14.75607,-13.4621 -29.60887,-21.47474 l -13.25301,-7.1495 0.80943,-21.72865 c 0.6942,-18.63547 0.12785,-22.14351 -3.97882,-24.64294 -2.63352,-1.60285 -44.49464,-25.815 -93.02471,-53.80476 l -88.23648,-50.890478 -43.77944,25.394178 -43.77943,25.39417 -30.30246,-0.38777 c -28.12155,-0.35986 -57.12758,3.85406 -57.12758,8.29936 0,0.99664 -4.79136,2.57823 -10.64748,3.51467 -5.85612,0.93643 -13.01798,4.07309 -15.91525,6.97037 -2.89728,2.89727 -6.53187,5.26777 -8.07686,5.26777 -1.545,0 -2.07138,1.19364 -1.16973,2.65254 0.90165,1.4589 7.23873,2.77473 14.08239,2.92406 11.29688,0.2465 11.68324,0.45297 4.19453,2.2414 -12.0588,2.87983 -20.942419,9.58748 -16.48233,12.44512 2.43001,1.55692 0.65301,2.75932 -5.773402,3.90657 l -9.283899,1.65737 10.61017,0.58841 10.610171,0.58841 -9.2839,2.89486 -9.283898,2.89486 9.283898,1.82181 c 8.70093,1.70742 8.80546,1.84374 1.66462,2.171 -6.457538,0.29594 -7.115796,0.95585 -4.317162,4.328 1.816166,2.18834 7.632132,4.13594 12.924362,4.32799 l 9.62225,0.34919 -8.57711,1.64022 c -4.71741,0.90212 -10.99769,3.7291 -13.956171,6.28217 -2.958481,2.55307 -6.559058,4.64195 -8.00128,4.64195 -1.442221,0 -2.622221,2.28782 -2.622221,5.08404 0,2.79622 -1.492055,5.64506 -3.315678,6.33074 -1.823623,0.68569 0.762537,3.02889 5.74702,5.20712 8.107474,3.54298 8.485671,4.14356 3.588139,5.69797 -6.18588,1.96332 -5.41334,12.16318 0.921244,12.16318 2.018195,0 3.669445,1.19365 3.669445,2.65255 0,1.45889 2.387292,2.65254 5.305082,2.65254 2.9178,0 5.30509,1.19364 5.30509,2.65254 0,1.4589 2.08887,2.74949 4.64195,2.86798 8.12122,0.3769 -10.59907,7.49373 -20.050616,7.62256 -4.827519,0.0658 -8.176897,1.09112 -7.443061,2.27848 0.733837,1.18738 -5.056093,4.97243 -12.866512,8.41121 -10.745752,4.73118 -13.973445,7.43272 -13.266447,11.10386 0.514609,2.67215 -0.599928,4.8515 -2.481084,4.8515 -3.779279,0 -13.91949,10.1729 -12.836677,12.87807 0.376664,0.94099 -1.392476,4.0982 -3.931426,7.016 -2.53895,2.9178 -4.308498,6.29239 -3.93233,7.49908 0.376167,1.20667 -0.472222,6.38125 -1.885311,11.49904 -1.426208,5.1653 -1.597923,11.85986 -0.385968,15.04755 1.200806,3.15836 2.027871,6.42454 1.837922,7.25821 -0.70243,3.08289 7.890513,9.58255 15.041512,11.37734 4.057189,1.01828 6.660625,3.01008 5.785408,4.42621 -0.875215,1.41612 0.936878,2.57477 4.026875,2.57477 3.089997,0 4.880463,1.19365 3.978813,2.65255 -0.901649,1.45889 -0.07687,2.70034 1.832862,2.75875 1.909722,0.0583 -0.108701,2.04572 -4.485404,4.41627 -9.939771,5.38368 -4.642406,7.59354 8.112236,3.38411 13.631967,-4.49895 14.095501,-1.46935 0.618572,4.04293 -6.260843,2.56076 -9.883858,5.19943 -8.051145,5.86368 1.832711,0.66422 2.6575,2.29941 1.832862,3.63369 -2.46905,3.995 4.753168,2.79639 25.33917,-4.20537 10.723349,-3.64724 19.630729,-6.63135 19.794189,-6.63135 0.16345,0 0.46475,2.22426 0.66953,4.9428 0.27041,3.58979 -2.50036,5.80344 -10.12226,8.08702 -5.772017,1.72935 -9.876734,4.14396 -9.121584,5.36583 0.755149,1.22186 -1.157034,2.88318 -4.249296,3.6918 -4.768836,1.2471 -5.066298,2.01668 -1.959571,5.06983 4.698382,4.61739 13.866316,4.83583 28.878321,0.68813 9.52376,-2.63135 12.57857,-2.6327 15.03166,-0.005 2.35405,2.52 2.06028,4.31434 -1.24798,7.62259 -4.00066,4.00067 -3.8341,4.34083 2.20986,4.51322 6.02573,0.17188 6.12198,0.36459 1.23154,2.46609 l -5.30509,2.27968 5.30509,0.22705 c 4.41301,0.18887 4.63603,0.65943 1.32627,2.79836 -6.18039,3.99406 1.34434,3.39432 16.99996,-1.35497 16.21278,-4.91832 17.6871,-4.91564 15.78978,0.0286 -0.83975,2.18835 -3.60376,3.97882 -6.14224,3.97882 -2.53849,0 -7.33602,2.35954 -10.66118,5.24344 l -6.04575,5.24346 7.12527,2.70902 c 5.42405,2.06222 11.95641,1.44362 27.35979,-2.59093 22.37869,-5.8615 37.81014,-6.87045 20.56166,-1.34433 -7.88829,2.52726 -9.48121,3.86592 -6.20936,5.21821 2.42045,1.00038 8.51299,0.68348 13.53897,-0.70427 9.38756,-2.59202 12.71687,-0.88325 107.10242,54.97094 0.20504,0.12122 22.28743,-12.42979 49.07203,-27.89132 z"
     id="path6189"
     inkscape:connector-curvature="0" />
  <path
     style="fill:#241f1c;fill-opacity:1;stroke:none;stroke-width:0.79576272;stroke-linecap:round;stroke-linejoin:round;stroke-miterlimit:4;stroke-dasharray:none;stroke-opacity:1"
     d="m 468.99859,233.85964 c -11.15203,-5.47892 -16.81091,-9.64901 -15.23391,-11.22602 3.57186,-3.57186 -10.37849,-13.20505 -30.13657,-20.81032 -23.55987,-9.06866 -11.80115,-8.09577 14.45657,1.19609 12.11102,4.28575 22.5153,7.29701 23.12062,6.6917 2.52812,-2.52812 -38.3778,-18.42835 -77.91293,-30.28494 -49.20188,-14.75566 -71.52652,-19.62515 -110.08051,-24.01097 -15.31843,-1.74259 -28.66335,-3.34535 -29.65538,-3.56168 -0.99202,-0.21633 14.27138,-9.66345 33.91867,-20.99359 l 35.72236,-20.60026 31.06861,18.17526 c 17.08775,9.9964 56.43356,32.81126 87.43515,50.6997 l 56.36653,32.52444 v 15.65692 c 0,8.6113 -0.29841,15.56776 -0.66314,15.45879 -0.36472,-0.10897 -8.64745,-4.12077 -18.40607,-8.91512 z"
     id="path6193"
     inkscape:connector-curvature="0" />
  <path
     style="fill:#241f1c;fill-opacity:1;stroke:none;stroke-width:0.79576272;stroke-linecap:round;stroke-linejoin:round;stroke-miterlimit:4;stroke-dasharray:none;stroke-opacity:1;filter:url(#filter6203)"
     d="m 268.41323,489.93539 -40.60795,-23.49283 20.71389,-2.95401 c 38.13861,-5.43895 70.78064,-6.37566 108.23393,-3.10595 20.41696,1.78243 38.12185,3.85887 39.34419,4.61432 2.7133,1.67691 -77.50678,48.4313 -83.09729,48.4313 -2.18835,0 -22.25239,-10.57178 -44.58677,-23.49283 z"
     id="path6195"
     inkscape:connector-curvature="0" />
  <path
     style="fill:#241f1c;fill-opacity:1;stroke:none;stroke-width:0.56268924;stroke-linecap:round;stroke-linejoin:round;stroke-miterlimit:4;stroke-dasharray:none;stroke-opacity:1"
     d="m 271.55235,565.19571 c -16.34869,-2.0736 -25.7319,-5.05616 -24.8057,-7.88476 1.19368,-3.64551 13.95841,-6.8138 31.05094,-7.70707 l 16.26233,-0.84988 -13.25488,1.70408 c -15.39118,1.97874 -24.02233,4.84535 -22.41578,7.44481 2.40451,3.89057 18.1975,6.27827 49.73789,7.51973 l 32.82354,1.29197 -28.13446,0.0732 c -15.47396,0.0403 -34.0427,-0.67617 -41.26388,-1.59208 z"
     id="path6227"
     inkscape:connector-curvature="0" />
  <path
     style="fill:#241f1c;fill-opacity:1;stroke:none;stroke-width:0.56268924;stroke-linecap:round;stroke-linejoin:round;stroke-miterlimit:4;stroke-dasharray:none;stroke-opacity:1"
     d="m 322.19438,565.45989 -15.00505,-0.93781 19.69413,-1.2247 c 19.97227,-1.24199 31.10225,-3.93106 29.17531,-7.04893 -1.51577,-2.45256 -13.54625,-4.2133 -40.4291,-5.91706 l -23.44538,-1.48589 28.13446,0.77118 c 27.56572,0.7556 45.90078,3.67083 46.55964,7.40287 0.43971,2.4907 -11.11447,6.32621 -19.45678,6.45885 -3.66217,0.0582 -7.46032,0.73889 -8.44034,1.51258 -0.98001,0.7737 -8.53412,0.98471 -16.78689,0.46891 z"
     id="path6229"
     inkscape:connector-curvature="0" />
  <path
     style="fill:#241f1c;fill-opacity:1;stroke:none;stroke-width:0.56268924;stroke-linecap:round;stroke-linejoin:round;stroke-miterlimit:4;stroke-dasharray:none;stroke-opacity:1"
     d="m 280.9305,573.61374 c -51.93859,-3.31469 -80.78828,-9.57037 -79.33853,-17.20352 0.73838,-3.88766 15.06533,-8.80782 31.04104,-10.6601 6.44748,-0.74755 11.72732,-1.89387 11.73298,-2.54739 0.0116,-1.34496 6.74906,-1.57443 71.7327,-2.44322 25.53209,-0.34135 46.42193,0.0124 46.42186,0.78609 -6e-5,0.7737 3.16502,1.40994 7.0335,1.41386 9.36272,0.01 37.04716,4.66401 46.39624,7.80046 14.37264,4.82177 9.18003,11.90851 -12.01335,16.39553 -23.08588,4.8877 -91.4082,8.47487 -123.00644,6.45829 z m 85.39041,-4.50361 c 22.51613,-2.80028 41.21467,-7.31376 41.21467,-9.94844 0,-2.5584 -5.51111,-7.44338 -9.51112,-8.43054 -36.9751,-9.12509 -116.09261,-10.02833 -160.23346,-1.8293 -13.97783,2.59634 -17.81849,4.49844 -17.81849,8.82462 0,4.56625 14.14247,8.45199 44.07732,12.11055 13.20757,1.6142 87.70459,1.08471 102.27108,-0.72689 z"
     id="path6231"
     inkscape:connector-curvature="0" />
  <path
     style="fill:#241f1c;fill-opacity:1;stroke:none;stroke-width:0.56268924;stroke-linecap:round;stroke-linejoin:round;stroke-miterlimit:4;stroke-dasharray:none;stroke-opacity:1"
     d="m 259.36075,567.20503 c -29.92705,-5.00385 -37.05562,-8.91283 -25.2496,-13.8457 14.82397,-6.19385 37.54597,-8.20834 84.33197,-7.47674 24.75832,0.38716 47.96925,1.1844 51.57984,1.77165 3.61059,0.58725 9.09681,1.24662 12.1916,1.46526 3.09479,0.21864 6.74222,1.45257 8.10541,2.74207 1.36318,1.2895 3.68427,2.34454 5.15798,2.34454 5.54703,0 2.39892,5.42227 -4.35414,7.49953 -3.86849,1.18995 -8.29967,2.62274 -9.84706,3.18398 -5.74224,2.08268 -15.20006,2.5796 -62.83363,3.30134 -26.82152,0.4064 -53.40859,-0.0373 -59.08237,-0.98593 z m 112.12004,-4.06663 c 11.74126,-3.3005 12.92349,-4.22603 9.95973,-7.79714 -8.33157,-10.03892 -117.31413,-10.71229 -135.76285,-0.83884 -6.02588,3.22496 0.0731,7.13006 15.75934,10.09058 18.93541,3.57374 95.76887,2.55813 110.04378,-1.4546 z"
     id="path6233"
     inkscape:connector-curvature="0" />
  <path
     style="fill:#241f1c;fill-opacity:1;stroke:none;stroke-width:0.56268924;stroke-linecap:round;stroke-linejoin:round;stroke-miterlimit:4;stroke-dasharray:none;stroke-opacity:1"
     d="m 290.23503,562.38381 c -19.20088,-2.54459 -23.29464,-5.10627 -12.81175,-8.01699 3.99217,-1.10848 9.57958,-2.02013 12.41647,-2.02588 2.83689,-0.006 5.15621,-0.64349 5.15405,-1.41719 -0.002,-0.77369 5.69506,-1.03678 12.66051,-0.58463 l 12.66444,0.82209 -14.06723,1.26535 c -7.73698,0.69594 -16.952,1.90123 -20.47784,2.67843 -10.51399,2.3176 -2.29856,5.06177 19.36064,6.46695 14.61838,0.9484 16.92736,1.42601 10.12718,2.09482 -4.84468,0.47648 -16.10659,-0.10085 -25.02647,-1.28295 z"
     id="path6235"
     inkscape:connector-curvature="0" />
  <path
     style="fill:#241f1c;fill-opacity:1;stroke:none;stroke-width:0.56268924;stroke-linecap:round;stroke-linejoin:round;stroke-miterlimit:4;stroke-dasharray:none;stroke-opacity:1"
     d="m 300.62463,560.42342 c -15.78841,-2.60732 -9.14625,-5.90882 12.1916,-6.05987 17.10507,-0.12109 25.19008,1.33369 21.2594,3.82532 -1.3767,0.87268 -5.87923,1.51548 -10.00562,1.42845 -6.50867,-0.13728 -6.88137,-0.35717 -2.81345,-1.65995 3.28302,-1.05141 0.7521,-1.49253 -8.44033,-1.47109 -7.22118,0.0168 -11.65236,0.41661 -9.84706,0.88838 1.80529,0.47177 3.28235,1.63991 3.28235,2.59587 0,0.95596 -0.21101,1.62316 -0.46891,1.48267 -0.2579,-0.14048 -2.57899,-0.60389 -5.15798,-1.02978 z"
     id="path6237"
     inkscape:connector-curvature="0" />
</svg>
