<?xml version="1.0" standalone="no"?>
<!DOCTYPE svg PUBLIC "-//W3C//DTD SVG 20010904//EN"
 "http://www.w3.org/TR/2001/REC-SVG-20010904/DTD/svg10.dtd">
<svg version="1.0" xmlns="http://www.w3.org/2000/svg"
 width="720.000000pt" height="480.000000pt" viewBox="0 0 720.000000 480.000000"
 preserveAspectRatio="xMidYMid meet">
<metadata>
Created by potrace 1.15, written by Peter Selinger 2001-2017
</metadata>
<g transform="translate(0.000000,480.000000) scale(0.100000,-0.100000)"
fill="#000000" stroke="none">
<path d="M3267 3265 c-238 -88 -414 -530 -443 -1115 -5 -94 -12 -140 -29 -186
-64 -170 -130 -240 -177 -186 -30 33 -50 86 -55 141 l-5 56 43 20 c65 31 104
99 104 181 0 48 -5 69 -21 91 -30 40 -67 56 -114 48 -86 -15 -149 -86 -178
-203 -21 -81 -41 -106 -91 -116 l-34 -6 6 47 c3 27 1 69 -5 95 -18 86 -86 110
-114 42 -27 -65 -10 -147 39 -185 20 -16 20 -18 3 -63 -19 -49 -68 -106 -92
-106 -26 0 -42 56 -54 180 -15 172 -23 198 -65 216 -34 14 -76 7 -89 -14 -3
-6 -18 -68 -32 -138 -38 -189 -71 -264 -116 -264 -11 0 -23 11 -29 28 -17 42
-19 226 -4 337 8 55 14 104 15 108 0 4 -17 15 -37 24 -30 12 -59 14 -138 10
-162 -10 -244 -39 -580 -207 -312 -156 -411 -193 -511 -192 -154 1 -225 159
-121 270 19 21 68 52 81 52 2 0 9 -14 15 -30 13 -38 71 -66 101 -50 27 15 39
41 29 67 -11 31 -40 43 -101 43 -73 0 -150 -46 -193 -114 -27 -45 -30 -58 -30
-132 0 -75 3 -86 30 -125 41 -58 93 -83 184 -88 147 -7 238 29 491 197 263
173 356 222 491 257 101 27 94 39 94 -158 0 -202 18 -297 67 -353 38 -43 89
-58 134 -39 44 18 107 115 137 211 l23 73 12 -57 c15 -73 49 -140 84 -165 39
-29 106 -28 143 1 39 31 81 94 103 154 16 46 19 48 54 48 20 0 48 4 61 9 23 9
25 7 31 -30 28 -173 148 -285 268 -250 56 17 103 68 143 155 l32 68 7 -58 c8
-74 56 -212 91 -265 29 -44 90 -78 139 -79 95 0 198 104 294 298 l66 135 8
-36 c20 -97 94 -189 169 -211 98 -30 176 20 246 156 l37 73 7 -42 c27 -147
150 -236 262 -189 42 17 102 86 123 141 13 35 22 44 54 54 23 7 51 26 68 47
l29 35 6 -103 c7 -127 17 -155 61 -173 32 -13 84 -12 97 3 4 4 12 43 19 87 28
186 124 405 160 369 5 -5 17 -72 26 -149 18 -159 31 -198 71 -218 56 -29 87
-7 97 71 14 99 58 258 82 299 28 48 60 58 68 21 3 -13 7 -88 9 -168 5 -167 18
-216 75 -280 45 -50 99 -63 151 -36 36 19 84 88 108 157 l17 47 22 -54 c57
-141 148 -184 311 -150 91 19 177 59 383 178 335 194 482 254 611 246 63 -3
74 -7 95 -31 44 -51 23 -138 -44 -183 -23 -16 -79 -44 -87 -44 -1 0 -5 14 -9
30 -4 22 -15 35 -41 47 -33 16 -39 16 -63 2 -35 -19 -40 -58 -11 -85 16 -14
35 -19 83 -19 109 1 210 77 242 182 64 213 -186 281 -491 133 -100 -49 -159
-88 -355 -234 -228 -171 -331 -216 -405 -176 -39 21 -67 84 -72 160 l-5 65 43
20 c26 13 56 38 74 64 27 38 30 51 30 116 0 64 -3 77 -25 100 -37 40 -66 48
-123 34 -94 -22 -156 -117 -171 -257 -7 -71 -56 -215 -90 -264 -12 -19 -30
-33 -41 -33 -25 0 -31 44 -34 250 -2 159 -9 200 -41 253 -38 61 -127 72 -184
21 -38 -33 -101 -149 -112 -205 -10 -56 -21 -48 -23 17 -2 105 -32 199 -66
213 -97 37 -195 -81 -251 -301 -13 -53 -26 -99 -29 -101 -3 -3 -5 18 -5 47 0
71 -18 136 -46 166 -19 20 -32 25 -74 25 l-50 0 0 -40 c0 -65 -66 -170 -106
-170 -13 0 -21 55 -28 197 -5 85 -29 140 -74 166 -60 35 -154 25 -222 -23 -38
-27 -84 -119 -101 -199 -32 -158 -177 -352 -236 -315 -70 44 -104 221 -68 359
18 67 53 135 71 135 17 0 23 -48 13 -105 -24 -132 -25 -122 12 -144 68 -42 92
-25 103 73 13 105 -40 216 -110 235 -48 13 -118 -2 -161 -34 -41 -32 -82 -117
-93 -194 -10 -75 -115 -295 -184 -389 -49 -66 -116 -109 -150 -96 -46 18 -68
137 -67 359 1 88 5 161 11 163 23 8 99 76 148 134 128 150 286 428 345 609 72
217 53 360 -53 403 -49 19 -151 20 -203 1z m158 -29 c49 -21 65 -60 66 -158 1
-172 -99 -429 -259 -669 -67 -100 -185 -239 -202 -239 -5 0 -7 15 -5 33 72
552 168 903 272 998 55 51 75 57 128 35z m759 -982 c11 -10 16 -34 16 -69 0
-61 -7 -85 -25 -85 -6 0 -20 -9 -30 -20 -28 -31 -26 -101 4 -141 19 -25 24
-44 22 -77 -5 -105 -75 -163 -106 -89 -19 47 -33 160 -29 240 6 141 51 228
131 256 1 1 9 -6 17 -15z"/>
</g>
</svg>
